<?xml version="1.0" encoding="UTF-8"?> <svg xmlns="http://www.w3.org/2000/svg" id="Calque_1" data-name="Calque 1" viewBox="0 0 1080 1080"><defs><style>.cls-1{fill:#bdd3f9;}.cls-2,.cls-3{fill:none;stroke:#1f274a;stroke-miterlimit:10;stroke-width:13px;}.cls-3{stroke-linecap:round;}</style></defs><path class="cls-1" d="M616.3,661.2C672.81,649.08,716.78,566,716.78,492c0-79.84-51-144.56-114-144.56a91.78,91.78,0,0,0-30.72,5.32c-26.15-63.82-78.75-107.42-139.39-107.42-86.71,0-157,89.14-157,199.1,0,102,60.46,216.88,138.4,233,0,0,21.48,2.94,37.22,0,30.34-5.66,57.81-27.38,80.26-56.82,16.21,21,36,36,57.72,40.54C589.27,661.2,604.76,663.67,616.3,661.2Z"></path><path class="cls-2" d="M667.19,402.87C667.19,282.54,590.27,185,495.38,185S323.57,282.54,323.57,402.87c0,111.59,66.15,237.33,151.44,255a4,4,0,0,1,2.31,6.38l-6.21,7.88a1.58,1.58,0,0,0,1.24,2.56h46a1.58,1.58,0,0,0,1.24-2.56l-6.21-7.88a4,4,0,0,1,2.31-6.38C601,640.2,667.19,514.46,667.19,402.87Z"></path><path class="cls-3" d="M494.52,676.52s-20.94,43-17.4,98,27.06,52,29.38,88.2-32.24,22.42-37.64,54.73,39.29,48.33,39,83.22"></path><path class="cls-3" d="M676.9,653.6s15.2,31.22,12.63,71.14-19.64,37.78-21.33,64,23.41,16.28,27.33,39.74S667,863.61,667.19,889"></path><path class="cls-3" d="M612.64,608.56c15.42,16.19,33.13,27.55,52.16,31.5a2.89,2.89,0,0,1,1.68,4.63L662,650.41a1.15,1.15,0,0,0,.9,1.86H696.3a1.15,1.15,0,0,0,.9-1.86l-4.51-5.72a2.9,2.9,0,0,1,1.68-4.63c61.93-12.84,110-104.13,110-185.15,0-87.37-55.85-158.19-124.74-158.19a99.51,99.51,0,0,0-14.08,1"></path></svg> 