<?xml version="1.0" encoding="UTF-8"?>
<svg viewBox="0 0 387.32 422" xmlns="http://www.w3.org/2000/svg">
<defs>
<style>.cls-21{fill:#04bf8a;fill-rule:evenodd;}.cls-22{fill:#fff;}</style>
</defs>
<g data-name="Calque 2">
<g data-name="Layer 1">
<path class="cls-21" d="M194.51,274.26a61.23,61.23,0,0,1,60.37-51v-5.1c-40.57-1.51-40.54-59.73,0-61.22V72l40.74-2-102-70L91.83,68h40.64v88.92c40.57,1.5,40.54,59.73,0,61.22v5.1a61.23,61.23,0,0,1,60.37,51Z"/>
<path class="cls-22" d="M342.54,345.87c25.12-21.09,14.84-63-17-70.3a71.34,71.34,0,0,0-44.21-57.26c28.28-24.09,11.15-71.39-26.46-71.39s-54.75,47.31-26.47,71.39A71.68,71.68,0,0,0,193.66,248a71.74,71.74,0,0,0-34.75-29.71c28.27-24.09,11.14-71.39-26.47-71.39S77.66,194.23,106,218.31a71.36,71.36,0,0,0-44.2,57.26c-31.85,7.3-42.1,49.23-17,70.3A71.34,71.34,0,0,0,0,412a10,10,0,0,0,10,10H377.32a10,10,0,0,0,10-10A71.34,71.34,0,0,0,342.54,345.87Zm-5.83-30.8a20.64,20.64,0,0,1-20.61,20.61c-27.31-1-27.3-40.19,0-41.22a20.64,20.64,0,0,1,20.61,20.61ZM254.88,166.92a20.63,20.63,0,0,1,20.61,20.61c-1,27.3-40.19,27.29-41.22,0A20.63,20.63,0,0,1,254.88,166.92ZM243.89,402H143.43C155.36,347.4,232,347.44,243.89,402Zm-50.23-66.32a20.64,20.64,0,0,1-20.61-20.61c1-27.31,40.19-27.3,41.22,0A20.64,20.64,0,0,1,193.66,335.68ZM132.44,166.92a20.64,20.64,0,0,1,20.61,20.61c-1,27.3-40.19,27.3-41.22,0a20.64,20.64,0,0,1,20.61-20.61Zm0,66.32a51.5,51.5,0,0,1,50.49,42.66c-31,8.13-40.38,49.27-15.74,70a71.74,71.74,0,0,0-34.76,29.72,71.46,71.46,0,0,0-34.77-29.76c24.67-20.68,15.25-61.83-15.72-70a51.5,51.5,0,0,1,50.5-42.62ZM71.22,294.46a20.63,20.63,0,0,1,20.61,20.61c-1,27.3-40.19,27.3-41.22,0A20.64,20.64,0,0,1,71.22,294.46ZM21,402c11.68-54.55,88.68-54.64,100.47,0ZM254.9,375.58a71.88,71.88,0,0,0-34.77-29.73c24.65-20.69,15.22-61.83-15.74-70,10.8-56.5,90.2-56.46,101,0-31,8.13-40.38,49.3-15.71,70a71.47,71.47,0,0,0-34.76,29.71Zm11,26.42c11.7-54.71,88.86-54.51,100.48,0Z"/>
</g>
</g>
</svg>
