<svg id="Calque_1" data-name="Calque 1" xmlns="http://www.w3.org/2000/svg" viewBox="0 0 1080 1080"><defs><style>.cls-1{fill:#04bf8a;}.cls-2{fill:#fff;}</style></defs><rect class="cls-1" x="289.27" y="276.91" width="416" height="540.52" rx="30.32"/><path class="cls-2" d="M751.69,848.29H367.28a39.08,39.08,0,0,1-39-39V270.75a39.08,39.08,0,0,1,39-39H751.69a39.08,39.08,0,0,1,39,39v538.5A39.08,39.08,0,0,1,751.69,848.29ZM367.28,244.71a26.07,26.07,0,0,0-26,26v538.5a26.07,26.07,0,0,0,26,26H751.69a26.07,26.07,0,0,0,26-26V270.75a26.07,26.07,0,0,0-26-26Z"/><path class="cls-2" d="M746.31,773.59H372.67a11.9,11.9,0,0,1-11.89-11.88V278.29a11.9,11.9,0,0,1,11.89-11.88h69.64a21.28,21.28,0,0,1,18.64,11l4,7.32a34.76,34.76,0,0,0,30.43,18H623.57a34.76,34.76,0,0,0,30.43-18l4-7.32a21.27,21.27,0,0,1,18.63-11h69.65a11.89,11.89,0,0,1,11.88,11.88V761.71A11.89,11.89,0,0,1,746.31,773.59Zm-372.53-13H745.19V279.41H676.66a8.29,8.29,0,0,0-7.25,4.28l-4,7.32a47.72,47.72,0,0,1-41.81,24.7H495.41A47.75,47.75,0,0,1,453.59,291l-4-7.32a8.27,8.27,0,0,0-7.25-4.28H373.78Z"/><path class="cls-2" d="M559.49,827.93a24.5,24.5,0,1,1,24.5-24.5A24.53,24.53,0,0,1,559.49,827.93Zm0-36a11.5,11.5,0,1,0,11.5,11.5A11.51,11.51,0,0,0,559.49,791.93Z"/><path class="cls-2" d="M559.49,645.49A110.5,110.5,0,1,1,639,458.3a6.5,6.5,0,1,1-9.36,9,97.22,97.22,0,1,0,20.17,31,6.5,6.5,0,0,1,12-4.9A110.56,110.56,0,0,1,559.49,645.49Z"/><path class="cls-2" d="M557.13,585.69a18.82,18.82,0,0,1-14.35-6.61,529.33,529.33,0,0,0-51.27-52,6.5,6.5,0,1,1,8.46-9.88,534.54,534.54,0,0,1,52.69,53.41,5.93,5.93,0,0,0,9.09-.12l94-114.63a6.5,6.5,0,0,1,10,8.24l-94,114.63a18.92,18.92,0,0,1-14.47,6.94Z"/></svg>