<?xml version="1.0" encoding="UTF-8"?> <svg xmlns="http://www.w3.org/2000/svg" id="Calque_1" data-name="Calque 1" viewBox="0 0 1080 1080"><defs><style>.cls-1{fill:#bdd3f9;}.cls-2{fill:none;stroke:#1f274a;stroke-miterlimit:10;stroke-width:13px;}</style></defs><rect class="cls-1" x="166.16" y="399.22" width="486.5" height="486.5" rx="76.74"></rect><path class="cls-2" d="M513.54,737.84A76.57,76.57,0,0,1,455.18,711C387.79,632.06,319.72,573.46,319,572.88a43.19,43.19,0,0,1,56.18-65.61c2.87,2.46,68.86,59.19,138.19,138.94L837.25,251.08a43.19,43.19,0,0,1,66.81,54.76l-331,403.83a76.8,76.8,0,0,1-58.76,28.17Z"></path><path class="cls-2" d="M573.08,709.67a76.8,76.8,0,0,1-58.76,28.17h-.78A76.57,76.57,0,0,1,455.18,711C387.79,632.06,319.72,573.46,319,572.88a43.19,43.19,0,0,1,56.18-65.61c2.87,2.46,68.86,59.19,138.19,138.94L749.87,357.69A106,106,0,0,0,667,317.91H350.89a106.21,106.21,0,0,0-106.21,106.2V740.25A106.21,106.21,0,0,0,350.89,846.46H667A106.21,106.21,0,0,0,773.23,740.25V465.46Z"></path></svg> 