<svg id="Calque_1" data-name="Calque 1" xmlns="http://www.w3.org/2000/svg" viewBox="0 0 1080 1080"><defs><style>.cls-1{fill:#bdd3f9;}.cls-2{fill:#1f274a;}</style></defs><rect class="cls-1" x="289.27" y="276.91" width="416" height="540.52" rx="30.32"/><path class="cls-2" d="M751.69,848.29H367.28a39.08,39.08,0,0,1-39-39V270.75a39.08,39.08,0,0,1,39-39H751.69a39.08,39.08,0,0,1,39,39v538.5A39.07,39.07,0,0,1,751.69,848.29ZM367.28,244.71a26.08,26.08,0,0,0-26,26v538.5a26.08,26.08,0,0,0,26,26H751.69a26.08,26.08,0,0,0,26-26V270.75a26.08,26.08,0,0,0-26-26Z"/><path class="cls-2" d="M746.31,773.59H372.67a11.9,11.9,0,0,1-11.89-11.88V278.29a11.9,11.9,0,0,1,11.89-11.88h69.64a21.29,21.29,0,0,1,18.64,11l4,7.32a34.75,34.75,0,0,0,30.43,18H623.57a34.75,34.75,0,0,0,30.43-18l4-7.32a21.26,21.26,0,0,1,18.63-11h69.65a11.89,11.89,0,0,1,11.88,11.88V761.71A11.89,11.89,0,0,1,746.31,773.59Zm-372.53-13H745.19V279.41H676.66a8.28,8.28,0,0,0-7.25,4.28l-4,7.32a47.72,47.72,0,0,1-41.81,24.7H495.41A47.76,47.76,0,0,1,453.59,291l-4-7.32a8.28,8.28,0,0,0-7.25-4.28H373.78Z"/><path class="cls-2" d="M559.49,827.93a24.5,24.5,0,1,1,24.5-24.5h0A24.54,24.54,0,0,1,559.49,827.93Zm0-36a11.5,11.5,0,1,0,11.5,11.5A11.5,11.5,0,0,0,559.49,791.93Z"/><path class="cls-2" d="M559.49,645.49A110.5,110.5,0,1,1,639,458.3a6.5,6.5,0,0,1-8.93,9.45,6.14,6.14,0,0,1-.43-.45,97.22,97.22,0,1,0,20.17,31,6.5,6.5,0,0,1,12-4.9A110.56,110.56,0,0,1,559.49,645.49Z"/><path class="cls-2" d="M557.13,585.69a18.82,18.82,0,0,1-14.35-6.61,528.73,528.73,0,0,0-51.27-52A6.5,6.5,0,1,1,500,517.2h0a534.55,534.55,0,0,1,52.69,53.41,5.94,5.94,0,0,0,8.36.63,5.74,5.74,0,0,0,.73-.75l94-114.63a6.5,6.5,0,0,1,10,8.24l-94,114.63a18.9,18.9,0,0,1-14.47,6.94Z"/></svg>