<?xml version="1.0" encoding="UTF-8"?>
<svg data-name="Capa 1" viewBox="0 0 512 475.72" xmlns="http://www.w3.org/2000/svg">
<defs>
<style>.cls-18{fill:#04bf8a;}.cls-28{fill:#fff;}</style>
</defs>
<path class="cls-18" transform="translate(0 -18.14)" d="M106.86,142.54H334.79L220.82,273Z"/>
<path class="cls-28" transform="translate(0 -18.14)" d="m431.64 18.14a80.19 80.19 0 0 0-79.74 70.4h-341.9a10 10 0 0 0-7.53 16.58l208.36 238.53v0.37 129.84h-90.89a10 10 0 1 0 0 20h201.76a10 10 0 0 0 0-20h-90.88v-129.86-0.37l155.88-178.44a80.38 80.38 0 1 0 44.94-147zm-22 90.4-188.82 216.15-188.82-216.15zm22 50.39a59.82 59.82 0 0 1-31.64-8.93l39.18-44.85a10 10 0 0 0-7.53-16.58h-59.55a60.37 60.37 0 1 1 59.54 70.39z"/>
</svg>
