<?xml version="1.0" encoding="utf-8"?>
<!-- Generator: Adobe Illustrator 26.0.3, SVG Export Plug-In . SVG Version: 6.00 Build 0)  -->
<svg version="1.1" id="Layer_1" xmlns="http://www.w3.org/2000/svg" xmlns:xlink="http://www.w3.org/1999/xlink" x="0px" y="0px"
	 viewBox="0 0 512 512" style="enable-background:new 0 0 512 512;" xml:space="preserve">
<style type="text/css">
	.st0{fill-rule:evenodd;clip-rule:evenodd;fill:#04BF8A;}
	.st1{fill:#FFFFFF;}
</style>
<g>
	<path class="st0" d="M199.4,378.7c7.7-68.6,105.5-68.6,113.2,0h0.4c1.8-20.9,14.9-38.5,33.2-46.8v-22.1c-6.6-9-6.6-23.2,0-32.2
		V133.3H165.8v144.3c6.6,9,6.6,23.2,0,32.2v22.1c18.2,8.3,31.4,25.9,33.2,46.8H199.4z M256,265.3c15.7,0,28.4,12.7,28.4,28.4
		c-1.4,37.6-55.4,37.6-56.8,0C227.6,278.1,240.3,265.3,256,265.3z"/>
	<g>
		<path class="st1" d="M452.3,440.4c22.6-20.1,12.8-58.5-16.5-65.6c-1.9-14.7-8.7-28.3-19.4-38.8c-6.1-6-13.2-10.7-20.9-14
			c25.6-23.2,9.1-66.8-25.9-66.7c-35,0-51.5,43.6-25.9,66.7c-7.7,3.2-14.8,7.9-20.9,14c-3.9,3.8-7.2,8-10,12.4
			c-2.8-4.5-6.1-8.7-10-12.4c-6.1-6-13.2-10.7-20.9-14c22.4-19.9,12.9-58-15.9-65.4v-69.6c-0.5-13.3-19.5-13.2-20,0v69.6
			c-28.9,7.4-38.3,45.5-15.9,65.4c-12.5,5.2-23.7,14.8-30.9,26.4c-2.8-4.5-6.1-8.7-10-12.4c-6.1-6-13.2-10.7-20.9-14
			c25.6-23.2,9.1-66.8-25.9-66.7c-35,0-51.5,43.6-25.9,66.7c-7.7,3.2-14.8,7.9-20.9,14c-10.7,10.5-17.5,24.1-19.4,38.8
			c-29.3,7.1-39,45.5-16.5,65.6c-24,10.1-40.9,33.9-40.9,61.6c0,5.5,4.5,10,10,10h454.4c5.5,0,10-4.5,10-10
			C493.2,474.3,476.3,450.5,452.3,440.4z M444.8,412.1c0,10.1-8.3,18.4-18.4,18.4c-24.4-0.9-24.4-35.9,0-36.8
			C436.5,393.7,444.8,401.9,444.8,412.1z M369.6,275.3c10.1,0,18.4,8.3,18.4,18.4c-0.9,24.4-35.9,24.4-36.8,0
			C351.2,283.6,359.5,275.3,369.6,275.3z M312.8,430.5c-10.1,0-18.4-8.3-18.4-18.4c0.9-24.4,35.9-24.4,36.8,0
			C331.2,422.2,322.9,430.5,312.8,430.5z M256,275.3c10.1,0,18.4,8.3,18.4,18.4c-0.9,24.4-35.9,24.4-36.8,0
			C237.6,283.6,245.9,275.3,256,275.3L256,275.3z M199.2,430.5c-10.1,0-18.4-8.3-18.4-18.4c0.9-24.4,35.9-24.4,36.8,0
			C217.6,422.2,209.3,430.5,199.2,430.5z M142.4,275.3c10.1,0,18.4,8.3,18.4,18.4c-0.9,24.4-35.9,24.4-36.8,0
			C124,283.6,132.3,275.3,142.4,275.3z M85.6,393.7c10.1,0,18.4,8.3,18.4,18.4c-0.9,24.4-35.9,24.4-36.8,0
			C67.2,401.9,75.5,393.7,85.6,393.7z M39.9,492c11.3-48.7,80.1-48.8,91.5,0H39.9z M142.4,466.9c-7.3-11.7-18.1-21-30.9-26.4
			c22.2-19.7,13.3-57.3-15.1-65.2c10.4-50.8,81.7-50.7,92,0c-28.4,7.9-37.2,45.5-15.1,65.2C160.5,445.8,149.7,455.1,142.4,466.9z
			 M153.5,492c11.3-48.8,80.1-48.7,91.5,0H153.5z M256,466.9c-7.3-11.7-18.1-21-30.9-26.4c22.2-19.7,13.3-57.3-15.1-65.2
			c10.4-50.8,81.7-50.7,92,0c-28.3,7.9-37.2,45.5-15.1,65.2c-7.1,3-13.8,7.3-19.6,12.7C262.9,457.2,259.1,461.8,256,466.9z
			 M267.1,492c11.4-48.7,80.1-48.7,91.5,0H267.1z M369.6,466.9c-7.3-11.8-18.1-21.1-30.9-26.5c22.1-19.7,13.2-57.3-15.1-65.2
			c10.4-50.8,81.7-50.7,92,0c-28.4,7.9-37.2,45.6-15.1,65.2C387.8,445.9,376.9,455.2,369.6,466.9L369.6,466.9z M380.7,492
			c11.4-48.8,80.2-48.7,91.5,0H380.7z"/>
		<path class="st1" d="M189.4,123.3H156c-13.3,0.5-13.2,19.5,0,20h200c13.3-0.5,13.2-19.5,0-20h-33.4c-1.9-25.5-18.2-47.1-40.7-56.6
			C307.5,43.6,291,0,256,0c-35,0-51.5,43.6-25.9,66.7C207.6,76.3,191.3,97.8,189.4,123.3z M256,20c10.1,0,18.4,8.3,18.4,18.4
			c-0.9,24.4-35.9,24.4-36.8,0C237.6,28.3,245.9,20,256,20L256,20z M256,81.5c24.1,0,44,18.3,46.5,41.8h-93.1
			C212,99.9,231.9,81.5,256,81.5z"/>
		<path class="st1" d="M136,59.2h20c13.3-0.5,13.2-19.5,0-20h-20C122.7,39.7,122.8,58.8,136,59.2z"/>
		<path class="st1" d="M142.9,19.7l19.3,5.2c5.2,1.4,10.8-1.7,12.2-7.1c1.4-5.3-1.7-10.8-7.1-12.2l-19.3-5.2
			c-5.3-1.4-10.8,1.7-12.2,7.1C134.4,12.7,137.6,18.2,142.9,19.7z"/>
		<path class="st1" d="M174.5,80.7c-1.4-5.3-6.9-8.5-12.2-7.1l-19.3,5.2c-12.7,3.9-7.7,22.3,5.2,19.3l19.3-5.2
			C172.8,91.5,175.9,86.1,174.5,80.7z"/>
		<path class="st1" d="M356,39.2c-13.3,0.5-13.2,19.5,0,20h20c13.3-0.5,13.2-19.5,0-20H356z"/>
		<path class="st1" d="M347.2,25.2c0.9,0,1.7-0.1,2.6-0.3l19.3-5.2c12.7-3.9,7.7-22.3-5.2-19.3l-19.3,5.2c-5.3,1.4-8.5,6.9-7.1,12.2
			C338.7,22.2,342.8,25.2,347.2,25.2z"/>
		<path class="st1" d="M344.6,93l19.3,5.2c5.2,1.4,10.8-1.7,12.2-7.1c1.4-5.3-1.7-10.8-7.1-12.2l-19.3-5.2
			C336.8,70.7,331.9,89.1,344.6,93L344.6,93z"/>
	</g>
</g>
</svg>
