<svg id="Calque_1" data-name="Calque 1" xmlns="http://www.w3.org/2000/svg" viewBox="0 0 1080 1080"><defs><style>.cls-1{fill:#bdd3f9;}.cls-2{fill:#1f274a;}</style></defs><path class="cls-1" d="M526.54,479.61V308.19a19.24,19.24,0,0,0-22.57-19l-304.16,53.4a19.27,19.27,0,0,0-15.93,19v396.9a19.24,19.24,0,0,0,15.93,19L504,830.77a19.24,19.24,0,0,0,22.57-19V479.61Z"/><path class="cls-2" d="M581.55,848.29a27.16,27.16,0,0,1-4.85-.43L238.07,788.45A27.89,27.89,0,0,1,215,760.94V319.06a27.89,27.89,0,0,1,23.11-27.51L576.7,232.14a27.93,27.93,0,0,1,32.76,27.51v560.7a28,28,0,0,1-27.91,27.94Zm0-603.58a15,15,0,0,0-2.59.23L240.31,304.35A14.92,14.92,0,0,0,228,319.06V760.94a14.91,14.91,0,0,0,12.35,14.7L579,835.06a14.91,14.91,0,0,0,17.51-14.71V259.65a14.94,14.94,0,0,0-14.92-14.94Z"/><path class="cls-2" d="M868.19,785.44H671.45a28,28,0,0,1-27.93-27.93v-435a28,28,0,0,1,27.93-27.93H868.19a28,28,0,0,1,27.93,27.93v435A28,28,0,0,1,868.19,785.44ZM671.45,307.56a15,15,0,0,0-14.93,14.93v435a15,15,0,0,0,14.93,14.93H868.19a15,15,0,0,0,14.93-14.93v-435a15,15,0,0,0-14.93-14.93Z"/><path class="cls-2" d="M472.62,442.17H439.81a4.66,4.66,0,0,0-4.07,2.38l-27.51,48.83a4.68,4.68,0,0,1-8.15,0l-27.5-48.83a4.69,4.69,0,0,0-4.08-2.38H335.7a4.67,4.67,0,0,0-4.08,7L381.1,537a4.69,4.69,0,0,1,0,4.59l-54.83,97.33a4.67,4.67,0,0,0,4.07,7h32.81a4.67,4.67,0,0,0,4.07-2.38l32.86-58.34a4.68,4.68,0,0,1,8.15,0l32.86,58.34a4.69,4.69,0,0,0,4.08,2.38H478a4.67,4.67,0,0,0,4.08-7l-54.83-97.33a4.69,4.69,0,0,1,0-4.59l49.47-87.82a4.67,4.67,0,0,0-4.1-7Z"/><path class="cls-2" d="M698.29,388.87H650a6.5,6.5,0,0,1,0-13h48.27a6.5,6.5,0,0,1,0,13Z"/><path class="cls-2" d="M846.13,388.87H749a6.5,6.5,0,0,1,0-13h97.17a6.5,6.5,0,0,1,0,13Z"/><path class="cls-2" d="M698.29,494H650a6.5,6.5,0,0,1,0-13h48.27a6.5,6.5,0,0,1,0,13Z"/><path class="cls-2" d="M846.13,494H749a6.5,6.5,0,0,1,0-13h97.17a6.5,6.5,0,1,1,0,13Z"/><path class="cls-2" d="M698.29,599H650a6.5,6.5,0,0,1,0-13h48.27a6.5,6.5,0,0,1,0,13Z"/><path class="cls-2" d="M846.13,599H749a6.5,6.5,0,0,1,0-13h97.17a6.5,6.5,0,1,1,0,13Z"/><path class="cls-2" d="M698.29,704.13H650a6.5,6.5,0,0,1,0-13h48.27a6.5,6.5,0,0,1,0,13Z"/><path class="cls-2" d="M846.13,704.13H749a6.5,6.5,0,0,1,0-13h97.17a6.5,6.5,0,0,1,0,13Z"/></svg>