<svg id="Calque_1" data-name="Calque 1" xmlns="http://www.w3.org/2000/svg" viewBox="0 0 1080 1080"><defs><style>.cls-1{fill:#bdd3f9;}.cls-2{fill:#1f274a;}</style></defs><path class="cls-1" d="M765.56,295.64H219.34a27.67,27.67,0,0,0-27.68,27.66h0V557.64H163.72A27.67,27.67,0,0,0,136,585.26V814.11a27.68,27.68,0,0,0,27.68,27.68H516.39a27.67,27.67,0,0,0,27.67-27.67h0V680.5h221.5a27.68,27.68,0,0,0,27.68-27.68V323.31a27.67,27.67,0,0,0-27.67-27.67Z"/><path class="cls-2" d="M906.64,685.88H298.38a37.36,37.36,0,0,1-37.32-37.32V269a37.36,37.36,0,0,1,37.32-37.32H906.64A37.36,37.36,0,0,1,944,269V648.56A37.36,37.36,0,0,1,906.64,685.88ZM298.38,244.71A24.35,24.35,0,0,0,274.06,269V648.56a24.36,24.36,0,0,0,24.32,24.32H906.64A24.35,24.35,0,0,0,931,648.56V269a24.36,24.36,0,0,0-24.32-24.32Z"/><path class="cls-2" d="M629.17,848.29H236.44A37.36,37.36,0,0,1,199.13,811V573.38a37.36,37.36,0,0,1,37.31-37.32h37.62v112.5a24.36,24.36,0,0,0,24.32,24.32H666.49V811A37.36,37.36,0,0,1,629.17,848.29ZM236.44,549.06a24.35,24.35,0,0,0-24.31,24.32V811a24.35,24.35,0,0,0,24.31,24.32H629.17A24.36,24.36,0,0,0,653.49,811V685.88H298.38a37.36,37.36,0,0,1-37.32-37.32v-99.5Z"/><path class="cls-2" d="M944,331.12H261.06V269a37.36,37.36,0,0,1,37.32-37.32H906.64A37.36,37.36,0,0,1,944,269Zm-669.9-13H931V269a24.36,24.36,0,0,0-24.32-24.32H298.38A24.36,24.36,0,0,0,274.06,269Z"/><path class="cls-2" d="M887.54,302.14H443.1a20.73,20.73,0,0,1,0-41.45H887.54a20.73,20.73,0,0,1,0,41.45ZM443.1,273.69a7.73,7.73,0,0,0,0,15.45H887.54a7.73,7.73,0,0,0,0-15.45Z"/><path class="cls-2" d="M590.35,541.73H495.5a11.93,11.93,0,0,1-11.91-11.91V505.33a11.93,11.93,0,0,1,11.91-11.91h94.85a11.92,11.92,0,0,1,11.91,11.91v24.49A11.92,11.92,0,0,1,590.35,541.73Zm-93.76-13h92.67V506.42H496.59Z"/><path class="cls-2" d="M709.52,541.73H653.67a11.93,11.93,0,0,1-11.91-11.91V505.33a11.93,11.93,0,0,1,11.91-11.91h55.85a11.93,11.93,0,0,1,11.91,11.91v24.49A11.93,11.93,0,0,1,709.52,541.73Zm-54.76-13h53.67V506.42H654.76Z"/><path class="cls-2" d="M709.52,477.21h-214a11.93,11.93,0,0,1-11.91-11.91V440.8a11.93,11.93,0,0,1,11.91-11.91h214a11.93,11.93,0,0,1,11.91,11.91v24.5A11.93,11.93,0,0,1,709.52,477.21Zm-212.93-13H708.43V441.89H496.59Z"/><path class="cls-2" d="M709.52,606.26h-214a11.93,11.93,0,0,1-11.91-11.91v-24.5a11.93,11.93,0,0,1,11.91-11.91h214a11.93,11.93,0,0,1,11.91,11.91v24.5A11.93,11.93,0,0,1,709.52,606.26Zm-212.93-13H708.43V570.94H496.59Z"/><path class="cls-2" d="M312.91,302.14a20.73,20.73,0,1,1,20.72-20.74v0A20.75,20.75,0,0,1,312.91,302.14Zm0-28.45a7.73,7.73,0,1,0,7.72,7.74h0A7.73,7.73,0,0,0,312.91,273.69Z"/><path class="cls-2" d="M385.89,287.92H370.12a6.5,6.5,0,0,1,0-13h15.77a6.5,6.5,0,0,1,0,13Z"/><path class="cls-2" d="M672.3,400.74H532.72a6.5,6.5,0,0,1,0-13H672.3a6.5,6.5,0,0,1,0,13Z"/><path class="cls-2" d="M504.54,455.18,502,456.69l-.94-1.51,2.62-1.65-2.62-1.65.94-1.51,2.53,1.51v-3.16h1.89v3.16l2.53-1.51.94,1.51-2.7,1.65,2.7,1.65-.94,1.51-2.53-1.51v3.16h-1.89Z"/><path class="cls-2" d="M516,455.18l-2.53,1.51-.94-1.51,2.62-1.65-2.62-1.65.94-1.51,2.53,1.51v-3.16h1.9v3.16l2.52-1.51.94,1.51-2.7,1.65,2.7,1.65-.94,1.51-2.52-1.51v3.16H516Z"/><path class="cls-2" d="M527.44,455.18l-2.52,1.51-.94-1.51,2.62-1.65-2.6-1.65.94-1.51,2.52,1.51v-3.16h1.9v3.16l2.53-1.51.94,1.51-2.7,1.65,2.7,1.65-.94,1.51-2.53-1.51v3.16h-1.9Z"/><path class="cls-2" d="M538.9,455.18l-2.53,1.51-.94-1.51,2.62-1.65-2.62-1.65.94-1.51,2.53,1.51v-3.16h1.89v3.16l2.53-1.51.94,1.51-2.7,1.65,2.7,1.65-.94,1.51-2.53-1.51v3.16H538.9Z"/><path class="cls-2" d="M550.35,455.18l-2.53,1.51-.94-1.51,2.62-1.65-2.62-1.65.94-1.51,2.53,1.51v-3.16h1.9v3.16l2.52-1.51.94,1.51-2.7,1.65,2.7,1.65-.94,1.51-2.52-1.51v3.16h-1.9Z"/><path class="cls-2" d="M561.8,455.18l-2.52,1.51-.94-1.51,2.62-1.65-2.62-1.65.94-1.51,2.52,1.51v-3.16h1.9v3.16l2.53-1.51.94,1.51-2.7,1.65,2.7,1.65-.94,1.51-2.53-1.51v3.16h-1.9Z"/><path class="cls-2" d="M573.26,455.18l-2.53,1.51-.94-1.51,2.62-1.65-2.62-1.65.94-1.51,2.53,1.51v-3.16h1.89v3.16l2.53-1.51.94,1.51-2.7,1.65,2.7,1.65-.94,1.51-2.53-1.51v3.16h-1.89Z"/><path class="cls-2" d="M584.71,455.18l-2.53,1.51-.94-1.51,2.62-1.65-2.62-1.65.94-1.51,2.53,1.51v-3.16h1.9v3.16l2.52-1.51.94,1.51-2.7,1.65,2.7,1.65-.94,1.51-2.52-1.51v3.16h-1.9Z"/><path class="cls-2" d="M596.16,455.18l-2.52,1.51-.94-1.51,2.62-1.65-2.62-1.65.94-1.51,2.52,1.51v-3.16h1.9v3.16l2.53-1.51.94,1.51-2.71,1.65,2.71,1.65-.94,1.51-2.53-1.51v3.16h-1.9Z"/><path class="cls-2" d="M607.62,455.18l-2.53,1.51-.94-1.51,2.62-1.65-2.62-1.65.94-1.51,2.53,1.51v-3.16h1.89v3.16l2.53-1.51.94,1.51-2.7,1.65,2.7,1.65-.94,1.51-2.53-1.51v3.16h-1.89Z"/><path class="cls-2" d="M619.07,455.18l-2.53,1.51-.94-1.51,2.62-1.65-2.62-1.65.94-1.51,2.53,1.51v-3.16H621v3.16l2.53-1.51.94,1.51-2.7,1.65,2.7,1.65-.94,1.51L621,455.18v3.16h-1.89Z"/><path class="cls-2" d="M630.52,455.18,628,456.69l-.93-1.51,2.62-1.65-2.62-1.65.93-1.51,2.53,1.51v-3.16h1.9v3.16l2.53-1.51.93,1.51-2.7,1.65,2.7,1.65-.93,1.51-2.53-1.51v3.16h-1.9Z"/><path class="cls-2" d="M642,455.18l-2.53,1.51-.94-1.51,2.62-1.65-2.62-1.65.94-1.51,2.53,1.51v-3.16h1.89v3.16l2.53-1.51.94,1.51-2.7,1.65,2.7,1.65-.94,1.51-2.53-1.51v3.16H642Z"/><path class="cls-2" d="M267.56,606.26H205.63a6.5,6.5,0,0,1,0-13h61.93a6.5,6.5,0,0,1,0,13Z"/></svg>