<?xml version="1.0" encoding="UTF-8"?> <svg xmlns="http://www.w3.org/2000/svg" id="Calque_1" data-name="Calque 1" viewBox="0 0 1080 1080"><defs><style>.cls-1{fill:#bdd3f9;}.cls-2{fill:none;stroke:#1f274a;stroke-linecap:round;stroke-miterlimit:10;stroke-width:13px;}</style></defs><path class="cls-1" d="M563.47,303.54A110.54,110.54,0,0,0,452.93,414.08c0,3.65.19,7.26.53,10.82A170.54,170.54,0,1,0,552.07,524a113,113,0,0,0,11.4.58,110.54,110.54,0,1,0,0-221.08Z"></path><path class="cls-2" d="M297.34,669.19A187.36,187.36,0,0,0,314.11,709l-20.24,25.52a21,21,0,0,0,1.57,27.75l34.85,34.86a20.87,20.87,0,0,0,27.76,1.56l25.35-20.07a184.18,184.18,0,0,0,41.38,17.51l3.8,32.63a20.9,20.9,0,0,0,20.74,18.5h49.3a20.9,20.9,0,0,0,20.74-18.5L523,797.3a186.52,186.52,0,0,0,44.35-17.92l24.54,19.41a21,21,0,0,0,27.75-1.57l34.85-34.86a20.85,20.85,0,0,0,1.57-27.75L637,710.41a182,182,0,0,0,18.26-43.61l29.4-3.39a20.9,20.9,0,0,0,18.5-20.73V593.37a20.9,20.9,0,0,0-18.5-20.73l-29-3.39a183.26,183.26,0,0,0-17.51-43.11L656,503.59a21,21,0,0,0-1.57-27.75l-34.77-34.78a20.87,20.87,0,0,0-27.75-1.57L570,456.84a184.2,184.2,0,0,0-45.35-19l-3.3-28.33A20.9,20.9,0,0,0,500.61,391H451.3a20.9,20.9,0,0,0-20.73,18.5l-3.31,28.33a183.34,183.34,0,0,0-46.5,19.66l-22.71-18a21,21,0,0,0-27.75,1.57l-34.86,34.86a20.85,20.85,0,0,0-1.57,27.75l19,24a179.61,179.61,0,0,0-17.18,43.53l-30.4,3.46a20.9,20.9,0,0,0-18.5,20.74v49.31a20.9,20.9,0,0,0,18.5,20.73ZM476,535.8a81.53,81.53,0,1,1-81.52,81.52A81.64,81.64,0,0,1,476,535.8Z"></path><path class="cls-2" d="M623.13,411.23c-.06-1.06-.08-2.14-.08-3.22a62.13,62.13,0,1,1,62.13,62.13h-.36"></path><path class="cls-2" d="M721,545.18a142.33,142.33,0,0,0,33.8-13.66l18.7,14.79a16,16,0,0,0,21.15-1.2l26.57-26.56a15.9,15.9,0,0,0,1.19-21.15L807.87,479a138.89,138.89,0,0,0,13.91-33.24l22.41-2.58a15.92,15.92,0,0,0,14.1-15.8V389.75a15.92,15.92,0,0,0-14.1-15.8l-22.09-2.58a139.94,139.94,0,0,0-13.35-32.86l13.6-17.19a16,16,0,0,0-1.2-21.15l-26.5-26.5a15.9,15.9,0,0,0-21.15-1.2l-16.68,13.22a140.69,140.69,0,0,0-34.56-14.48l-2.52-21.59a15.92,15.92,0,0,0-15.8-14.1H666.36a15.92,15.92,0,0,0-15.8,14.1L648,271.21a139.57,139.57,0,0,0-35.44,15l-17.31-13.73a16,16,0,0,0-21.16,1.2l-26.56,26.57a15.9,15.9,0,0,0-1.2,21.15l14.48,18.32a136.77,136.77,0,0,0-13.09,33.17"></path></svg> 