<?xml version="1.0" encoding="UTF-8"?> <svg xmlns="http://www.w3.org/2000/svg" id="Calque_1" data-name="Calque 1" viewBox="0 0 1080 1080"><defs><style>.cls-1{fill:#bdd3f9;}.cls-2{fill:none;stroke:#1f274a;stroke-miterlimit:10;stroke-width:13px;}.cls-3{fill:#1f274a;}</style></defs><path class="cls-1" d="M139.77,636.44A104.56,104.56,0,0,0,244.33,741H518.25l238.8,106.27L693,741A104.56,104.56,0,0,0,797.6,636.44V427.31A104.56,104.56,0,0,0,693,322.75H244.33A104.56,104.56,0,0,0,139.77,427.31V636.44Z"></path><path class="cls-2" d="M189.89,593.07A119.27,119.27,0,0,0,309.16,712.34H621.6L894,833.55,821,712.34A119.26,119.26,0,0,0,940.23,593.07V354.54A119.26,119.26,0,0,0,821,235.27H309.16A119.27,119.27,0,0,0,189.89,354.54V593.07Z"></path><path class="cls-3" d="M403.24,398.33c0-1.6.69-2.29,2.29-2.29H449c1.6,0,2.28.69,2.28,2.29v51.46a1.21,1.21,0,0,0,1.38,1.37h32.24a1.21,1.21,0,0,0,1.38-1.37V398.33c0-1.6.68-2.29,2.28-2.29H532c1.6,0,2.29.69,2.29,2.29v151c0,1.6-.69,2.29-2.29,2.29H488.55c-1.6,0-2.28-.69-2.28-2.29v-54.2a1.22,1.22,0,0,0-1.38-1.38H452.65a1.22,1.22,0,0,0-1.38,1.38v54.2c0,1.6-.68,2.29-2.28,2.29H405.53c-1.6,0-2.29-.69-2.29-2.29Z"></path><path class="cls-3" d="M554.43,398.33c0-1.6.69-2.29,2.29-2.29h43.45c1.6,0,2.29.69,2.29,2.29v151c0,1.6-.69,2.29-2.29,2.29H556.72c-1.6,0-2.29-.69-2.29-2.29Z"></path><path class="cls-3" d="M688.92,500.79c-1.6,0-2.29-.68-2.29-2.28l-5.49-100.18c0-1.6.69-2.29,2.29-2.29h41.16c1.61,0,2.29.69,2.29,2.29l-5.49,100.18c0,1.6-.68,2.28-2.28,2.28Zm-5.49,16.47c0-1.6.68-2.29,2.28-2.29h36.6c1.6,0,2.28.69,2.28,2.29v32c0,1.6-.68,2.29-2.28,2.29h-36.6c-1.6,0-2.28-.69-2.28-2.29Z"></path></svg> 