<svg id="Calque_1" data-name="Calque 1" xmlns="http://www.w3.org/2000/svg" viewBox="0 0 1080 1080"><defs><style>.cls-1{fill:#bdd3f9;}.cls-2{fill:#1f274a;}</style></defs><rect class="cls-1" x="200.29" y="495.04" width="554.74" height="321.69" rx="24.63"/><path class="cls-2" d="M851,852.5H290.85A14.91,14.91,0,0,1,281,826.41L538.74,599.19a48.71,48.71,0,0,1,64.32,0l102.4,90.27a6.5,6.5,0,0,1-8.3,10l-.29-.26-102.4-90.27a35.71,35.71,0,0,0-47.13,0L289.59,836.16a1.91,1.91,0,0,0,1.26,3.34H851a1.91,1.91,0,0,0,1.26-3.34l-118-104a6.5,6.5,0,0,1,8.59-9.76l118,104A14.91,14.91,0,0,1,851,852.5Z"/><path class="cls-2" d="M290.85,852.5h-2.43a26.35,26.35,0,0,1-26.32-26.32V508.52a26.31,26.31,0,0,1,40.14-22.4L528.4,625.64,289.59,836.16a1.91,1.91,0,0,0,1.26,3.34Zm-2.42-357.33a13.34,13.34,0,0,0-6.5,1.71,13.17,13.17,0,0,0-6.83,11.64V826.18a13.11,13.11,0,0,0,1.67,6.45,14.84,14.84,0,0,1,4.22-6.22L506.64,627.49,295.41,497.18A13.24,13.24,0,0,0,288.43,495.17Z"/><path class="cls-2" d="M853.39,852.5H851v-13a1.91,1.91,0,0,0,1.26-3.34L613.41,625.64,839.57,486.12a26.31,26.31,0,0,1,40.14,22.4V826.18A26.35,26.35,0,0,1,853.39,852.5Zm-218.22-225L860.82,826.41a15,15,0,0,1,4.22,6.22,13.22,13.22,0,0,0,1.67-6.45V508.52a13.31,13.31,0,0,0-20.31-11.34Z"/><path class="cls-2" d="M348.74,530.08l-53.33-32.9a13.1,13.1,0,0,0-8.23-1.95,7.31,7.31,0,0,1-4.72-13.39l66.28-43Zm-47.82-44.73c.44.24.88.5,1.32.77l33.5,20.66v-44Z"/><path class="cls-2" d="M793.07,530.08V438.5l66.28,43.34a7.31,7.31,0,0,1-4.73,13.39,13.17,13.17,0,0,0-8.23,1.95Zm13-67.55v44.25l33.5-20.66c.45-.28.91-.55,1.37-.79Zm46.16,30.18Z"/><path class="cls-2" d="M570.9,436.78A77.12,77.12,0,1,1,648,359.64v0A77.21,77.21,0,0,1,570.9,436.78Zm0-141.23A64.12,64.12,0,1,0,635,359.69v0A64.19,64.19,0,0,0,570.9,295.55Z"/><path class="cls-2" d="M520.65,480.91H403.31a6.5,6.5,0,0,1,0-13H520.65a6.5,6.5,0,0,1,0,13Z"/><path class="cls-2" d="M602.7,527.81H485.37a6.5,6.5,0,0,1,0-13H602.7a6.5,6.5,0,0,1,0,13Z"/><path class="cls-2" d="M720,527.81H642.87a6.5,6.5,0,1,1,0-13H720a6.5,6.5,0,0,1,0,13Z"/><path class="cls-2" d="M738.49,480.91H567.93a6.5,6.5,0,0,1,0-13H738.49a6.5,6.5,0,0,1,0,13Z"/><path class="cls-2" d="M518.2,634.62,335.74,522.06V255.5a28,28,0,0,1,28-28H778.07a28,28,0,0,1,28,28V522.06L626.35,632.93l-27.22-24a35.38,35.38,0,0,0-25.54-8.84h-.71a35.46,35.46,0,0,0-25.54,8.84ZM348.74,514.8,516.83,618.5l21.91-19.31a55.27,55.27,0,0,1,69,0l20,17.62,165.35-102V255.5a15,15,0,0,0-15-15H363.74a15,15,0,0,0-15,15h0Zm450.83,3.63Z"/></svg>