<svg id="Calque_1" data-name="Calque 1" xmlns="http://www.w3.org/2000/svg" viewBox="0 0 1080 1080"><defs><style>.cls-1{fill:#04bf8a;}.cls-2{fill:#fff;}</style></defs><rect class="cls-1" x="251.12" y="257.67" width="426.67" height="553.33" rx="24.63"/><path class="cls-2" d="M386.46,852.5h-1c-41.26-.54-74.83-35-74.83-76.86V252a24.53,24.53,0,0,1,24.5-24.5H725.78a24.53,24.53,0,0,1,24.5,24.5V745H465.79a6.93,6.93,0,0,0-5.69,2.86A7.41,7.41,0,0,0,459,754.5a75.85,75.85,0,0,1-72.53,98Zm-51.35-612a11.51,11.51,0,0,0-11.5,11.5V775.63c0,34.77,27.82,63.42,62,63.86a62.9,62.9,0,0,0,60.95-81.19,20.27,20.27,0,0,1,3.09-18.16A19.88,19.88,0,0,1,465.79,732H737.28V252a11.51,11.51,0,0,0-11.5-11.5Z"/><path class="cls-2" d="M753,852.5H386.45v-13a62.88,62.88,0,0,0,60-81.44,20,20,0,0,1,3-18,19.71,19.71,0,0,1,16-8.09H804.36a17.92,17.92,0,0,1,15.92,9.7c6.29,12.08,9.16,24,8.51,35.32-1,17.27-3.49,24.58-5.33,27.66A75.88,75.88,0,0,1,753,852.5Zm-324.09-13H753a63.27,63.27,0,0,0,58.63-40.15l.62-1.6.28-.15c.63-1.46,2.51-6.9,3.32-21.31h0c.51-9-1.86-18.6-7.06-28.58a5,5,0,0,0-4.39-2.7H465.52a6.84,6.84,0,0,0-5.56,2.8,7.14,7.14,0,0,0-1.06,6.41,75.89,75.89,0,0,1-30,85.28Z"/><path class="cls-2" d="M433,389.84H350.61V307.5H433Zm-69.34-13H420V320.5H363.61Z"/><path class="cls-2" d="M433,528.83H350.61V446.49H433Zm-69.34-13H420V459.49H363.61Z"/><path class="cls-2" d="M433,667.82H350.61V585.48H433Zm-69.34-13H420V598.48H363.61Z"/><path class="cls-2" d="M691.78,338H456.45a6.5,6.5,0,0,1,0-13H691.78a6.5,6.5,0,0,1,0,13Z"/><path class="cls-2" d="M648.11,274.72H412.78a6.5,6.5,0,0,1,0-13H648.11a6.5,6.5,0,0,1,0,13Z"/><path class="cls-2" d="M583.12,372.33H456.45a6.5,6.5,0,0,1,0-13H583.12a6.5,6.5,0,0,1,0,13Z"/><path class="cls-2" d="M691.78,372.33H641.41a6.5,6.5,0,0,1,0-13h50.37a6.5,6.5,0,0,1,0,13Z"/><path class="cls-2" d="M691.78,477H456.45a6.5,6.5,0,0,1,0-13H691.78a6.5,6.5,0,0,1,0,13Z"/><path class="cls-2" d="M691.78,511.33H544.23a6.5,6.5,0,0,1,0-13H691.78a6.5,6.5,0,0,1,0,13Z"/><path class="cls-2" d="M691.78,616H456.45a6.5,6.5,0,0,1,0-13H691.78a6.5,6.5,0,0,1,0,13Z"/><path class="cls-2" d="M647.9,650.31H500.34a6.5,6.5,0,1,1,0-13H647.9a6.5,6.5,0,1,1,0,13Z"/><path class="cls-2" d="M392.38,365.52a10.9,10.9,0,0,1-8.29-3.82,182.24,182.24,0,0,0-17.77-18,6.5,6.5,0,0,1,8.46-9.88,195.9,195.9,0,0,1,17.57,17.57l41.86-51.07a6.5,6.5,0,1,1,10.05,8.24l-43.42,53a10.9,10.9,0,0,1-8.34,4Z"/></svg>