<?xml version="1.0" encoding="utf-8"?>
<svg version="1.1" id="Capa_1" xmlns="http://www.w3.org/2000/svg" xmlns:xlink="http://www.w3.org/1999/xlink" x="0px" y="0px"
	 viewBox="0 0 512 512" style="enable-background:new 0 0 512 512;" xml:space="preserve">
<style type="text/css">
	.st0{fill:#04BF8A;}
	.st1{fill:#FFFFFF;}
</style>
<g>
	<path class="st0" d="M101,332v60l310-140v-60L101,332z"/>
	<path class="st0" d="M231,402h130v50H231V402z"/>
	<g>
		<path class="st1" d="M411,0H101c-5.5,0-10,4.5-10,10v492c0,5.5,4.5,10,10,10h310c5.5,0,10-4.5,10-10V10C421,4.5,416.5,0,411,0z
			 M401,20v165.5l-30,13.5V120c0-38.6-31.2-70-70-70c-5.5,0-10,4.5-10,10v175.2l-60,27.1v-91.7c17-4.8,30-21.5,30-40.6V60
			c0-5.5-4.5-10-10-10c-5.5,0-10,4.5-10,10v70c0,11.5-9.5,22-20,22h-10V60c0-5.5-4.5-10-10-10s-10,4.5-10,10v92h-10
			c-10.5,0-20-10.5-20-22V60c0-5.5-4.5-10-10-10s-10,4.5-10,10v70c0,19.2,13,35.8,30,40.6v118.8l-60,27.1V20H401z M351,208.1
			l-40,18.1V71c22.6,4.6,40,24.6,40,49V208.1z M191,280.4V172h20v99.3L191,280.4z M111,492V338.5c16.2-7.3,272.2-122.9,290-131V492
			H111z"/>
	</g>
</g>
</svg>
