<svg id="Calque_1" data-name="Calque 1" xmlns="http://www.w3.org/2000/svg" viewBox="0 0 1080 1080"><defs><style>.cls-1{fill:#04bf8a;}.cls-2{fill:#fff;}</style></defs><circle class="cls-1" cx="500.13" cy="580" r="201.1"/><path class="cls-2" d="M540.11,449.55A110.9,110.9,0,0,1,468.5,254c1.05-.91,13-11.25,25.23-16.06,12-4.72,28.14-10.15,46.38-10.15A111,111,0,0,1,651,338.65a107.86,107.86,0,0,1-3.77,28.79h0a115,115,0,0,1-18.59,38A110.07,110.07,0,0,1,540.11,449.55Zm0-208.79c-16.05,0-30.68,4.94-41.62,9.25-10.38,4.08-21.33,13.67-21.44,13.76l-.11.09A97.9,97.9,0,1,0,618.31,397.55l.13-.17A103.08,103.08,0,0,0,634.7,364a94.66,94.66,0,0,0,3.3-25.31A98,98,0,0,0,540.11,240.76ZM641,365.7h0Z"/><path class="cls-2" d="M540.11,359.31a37.47,37.47,0,1,1,37.46-37.46A37.5,37.5,0,0,1,540.11,359.31Zm0-61.93a24.47,24.47,0,1,0,24.46,24.47A24.49,24.49,0,0,0,540.11,297.38Z"/><path class="cls-2" d="M540.11,449.55a110.36,110.36,0,0,1-62.28-19.13L475,428.48v-31A38.35,38.35,0,0,1,513.3,359.2h53.62a38.35,38.35,0,0,1,38.31,38.32v31l-2.84,1.94A110.36,110.36,0,0,1,540.11,449.55Zm-52.12-28a97.94,97.94,0,0,0,104.24,0v-24a25.34,25.34,0,0,0-25.31-25.32H513.3A25.34,25.34,0,0,0,488,397.52Z"/><path class="cls-2" d="M508.93,444.81a6.5,6.5,0,0,1-6.5-6.5v-39a6.5,6.5,0,1,1,13,0v39A6.5,6.5,0,0,1,508.93,444.81Z"/><path class="cls-2" d="M571.07,444.81a6.5,6.5,0,0,1-6.5-6.5v-39a6.5,6.5,0,0,1,13,0v39A6.5,6.5,0,0,1,571.07,444.81Z"/><path class="cls-2" d="M338.76,650.9a110.9,110.9,0,0,1-71.6-195.58c1-.91,13-11.26,25.22-16.06,12-4.73,28.15-10.16,46.38-10.16A111,111,0,0,1,449.66,540a107.51,107.51,0,0,1-3.78,28.79,115,115,0,0,1-18.59,38A110.09,110.09,0,0,1,338.76,650.9Zm0-208.8c-16.05,0-30.67,4.95-41.62,9.25-10.37,4.08-21.33,13.67-21.44,13.77l-.1.09A97.9,97.9,0,1,0,417,598.9l.13-.17a103.35,103.35,0,0,0,16.26-33.42l6.26,1.74-6.26-1.74a94.72,94.72,0,0,0,3.3-25.31A98,98,0,0,0,338.76,442.1Z"/><path class="cls-2" d="M338.76,560.65a37.46,37.46,0,1,1,37.47-37.46A37.5,37.5,0,0,1,338.76,560.65Zm0-61.92a24.46,24.46,0,1,0,24.47,24.46A24.49,24.49,0,0,0,338.76,498.73Z"/><path class="cls-2" d="M338.76,650.9a110.27,110.27,0,0,1-62.27-19.14l-2.85-1.93v-31A38.35,38.35,0,0,1,312,560.55h53.62a38.35,38.35,0,0,1,38.32,38.31v31L401,631.76A110.27,110.27,0,0,1,338.76,650.9Zm-52.12-28a98,98,0,0,0,104.25,0v-24a25.34,25.34,0,0,0-25.32-25.31H312a25.33,25.33,0,0,0-25.31,25.31Z"/><path class="cls-2" d="M307.58,646.16a6.5,6.5,0,0,1-6.5-6.5v-39a6.5,6.5,0,0,1,13,0v39A6.5,6.5,0,0,1,307.58,646.16Z"/><path class="cls-2" d="M369.73,646.16a6.5,6.5,0,0,1-6.5-6.5v-39a6.5,6.5,0,0,1,13,0v39A6.5,6.5,0,0,1,369.73,646.16Z"/><path class="cls-2" d="M741.24,650.9a110.9,110.9,0,0,1-71.61-195.58c1-.91,13-11.26,25.23-16.06,12-4.73,28.14-10.16,46.38-10.16A111,111,0,0,1,852.13,540a107.91,107.91,0,0,1-3.77,28.79,115.13,115.13,0,0,1-18.6,38A110.07,110.07,0,0,1,741.24,650.9Zm0-208.8c-16,0-30.68,4.95-41.63,9.25-10.37,4.08-21.33,13.67-21.44,13.77l-.1.09A97.9,97.9,0,1,0,819.44,598.9l.13-.17a103.35,103.35,0,0,0,16.26-33.42l6.26,1.74-6.26-1.74a94.72,94.72,0,0,0,3.3-25.31A98,98,0,0,0,741.24,442.1Z"/><path class="cls-2" d="M741.24,560.65a37.46,37.46,0,1,1,37.46-37.46A37.51,37.51,0,0,1,741.24,560.65Zm0-61.92a24.46,24.46,0,1,0,24.46,24.46A24.49,24.49,0,0,0,741.24,498.73Z"/><path class="cls-2" d="M741.24,650.9A110.27,110.27,0,0,1,679,631.76l-2.85-1.93v-31a38.35,38.35,0,0,1,38.32-38.31h53.62a38.35,38.35,0,0,1,38.31,38.31v31l-2.85,1.93A110.27,110.27,0,0,1,741.24,650.9Zm-52.13-28a98,98,0,0,0,104.25,0v-24a25.33,25.33,0,0,0-25.31-25.31H714.43a25.34,25.34,0,0,0-25.32,25.31Z"/><path class="cls-2" d="M710.06,646.16a6.5,6.5,0,0,1-6.5-6.5v-39a6.5,6.5,0,1,1,13,0v39A6.5,6.5,0,0,1,710.06,646.16Z"/><path class="cls-2" d="M772.2,646.16a6.5,6.5,0,0,1-6.5-6.5v-39a6.5,6.5,0,0,1,13,0v39A6.5,6.5,0,0,1,772.2,646.16Z"/><path class="cls-2" d="M540.11,852.24A110.9,110.9,0,0,1,468.5,656.66c1-.91,13-11.25,25.23-16.06,12-4.73,28.14-10.15,46.38-10.15A111,111,0,0,1,651,741.35a107.84,107.84,0,0,1-3.77,28.78h0a115,115,0,0,1-18.59,38A110.07,110.07,0,0,1,540.11,852.24Zm0-208.79c-16.05,0-30.68,4.94-41.62,9.25-10.38,4.08-21.33,13.67-21.44,13.76l-.11.09A97.9,97.9,0,1,0,618.31,800.24l.13-.17a103.08,103.08,0,0,0,16.26-33.42,94.64,94.64,0,0,0,3.3-25.3A98,98,0,0,0,540.11,643.45ZM641,768.39h0Z"/><path class="cls-2" d="M540.11,762a37.47,37.47,0,1,1,37.46-37.46A37.5,37.5,0,0,1,540.11,762Zm0-61.93a24.47,24.47,0,1,0,24.46,24.47A24.49,24.49,0,0,0,540.11,700.07Z"/><path class="cls-2" d="M540.11,852.24a110.36,110.36,0,0,1-62.28-19.13L475,831.17v-31a38.35,38.35,0,0,1,38.31-38.31h53.62a38.35,38.35,0,0,1,38.31,38.31v31l-2.84,1.94A110.39,110.39,0,0,1,540.11,852.24Zm-52.12-28a97.94,97.94,0,0,0,104.24,0v-24a25.34,25.34,0,0,0-25.31-25.31H513.3A25.34,25.34,0,0,0,488,800.2Z"/><path class="cls-2" d="M508.93,847.5a6.5,6.5,0,0,1-6.5-6.5V802a6.5,6.5,0,1,1,13,0v39A6.5,6.5,0,0,1,508.93,847.5Z"/><path class="cls-2" d="M571.07,847.5a6.5,6.5,0,0,1-6.5-6.5V802a6.5,6.5,0,0,1,13,0v39A6.5,6.5,0,0,1,571.07,847.5Z"/><path class="cls-2" d="M714.59,445.94a6.52,6.52,0,0,1-5.64-3.25,195.89,195.89,0,0,0-71.24-71.37,6.5,6.5,0,1,1,6.52-11.24,208.8,208.8,0,0,1,76,76.11,6.5,6.5,0,0,1-5.62,9.75Z"/><path class="cls-2" d="M365.8,445.65a6.5,6.5,0,0,1-5.62-9.76A208.93,208.93,0,0,1,436,360.07a6.5,6.5,0,0,1,6.53,11.25,195.87,195.87,0,0,0-71.09,71.09A6.5,6.5,0,0,1,365.8,445.65Z"/><path class="cls-2" d="M439.25,720.81a6.55,6.55,0,0,1-3.26-.88,209,209,0,0,1-75.81-75.82,6.5,6.5,0,0,1,11.25-6.52,195.87,195.87,0,0,0,71.09,71.09,6.51,6.51,0,0,1-3.27,12.13Z"/><path class="cls-2" d="M641,720.8a6.5,6.5,0,0,1-3.27-12.12,195.89,195.89,0,0,0,71.06-71A6.5,6.5,0,1,1,720,644.17a209,209,0,0,1-75.77,75.76A6.53,6.53,0,0,1,641,720.8Z"/></svg>