<svg id="Calque_1" data-name="Calque 1" xmlns="http://www.w3.org/2000/svg" viewBox="0 0 1080 1080"><defs><style>.cls-1{fill:#bdd3f9;}.cls-2{fill:#1f274a;}</style></defs><path class="cls-1" d="M652.43,676.28l-9.84-8.19A99,99,0,0,1,606.9,592V537.57c0-70-50.42-128.18-117-140.39a37.65,37.65,0,1,0-53.87.35c-65.64,12.93-115.14,70.71-115.14,140V591A99,99,0,0,1,284,668.13l-10.1,8.13a51,51,0,0,0,31.77,90.86h94.62a63.45,63.45,0,1,0,125.1,0H620a50.88,50.88,0,0,0,51-50.76v-.59A51.39,51.39,0,0,0,652.43,676.28Z"/><path class="cls-2" d="M682.26,517.73c-78.85,0-143-64.05-143-142.78a142.25,142.25,0,0,1,77.82-127.11c.73-.37,17.3-8.68,30.08-11.32h0c10.93-2.25,22.74-4.34,35.09-4.34,1.25,0,31.91-.11,52.68,10,44.12,21.53,74.4,55.29,85.28,95.07.81,2.28,4.64,14.34,5,37.58A138.12,138.12,0,0,1,785,474.64,143.14,143.14,0,0,1,682.26,517.73ZM649.8,249.25c-11.09,2.29-26.67,10.1-26.82,10.18A129.29,129.29,0,0,0,552.27,375c0,71.56,58.31,129.78,130,129.78a130.27,130.27,0,0,0,93.56-39.18,125.24,125.24,0,0,0,36.44-90.49c-.39-22.76-4.28-33.41-4.31-33.51l-.2-.61c-9.83-36.23-37.71-67.14-78.52-87.05-18-8.79-46.65-8.7-46.92-8.71-11.24,0-22.26,2-32.51,4.07Z"/><path class="cls-2" d="M682.26,438.6a9.52,9.52,0,0,1-9.53-9.51h0V337.33l-3.55,3.24a9.52,9.52,0,0,1-12.84-14.06l19.5-17.76a9.53,9.53,0,0,1,15.95,7V429.09A9.52,9.52,0,0,1,682.26,438.6Z"/><path class="cls-2" d="M532.84,847.82h0a77.11,77.11,0,0,1-77.08-77A78.66,78.66,0,0,1,456.84,758l.92-5.41H607.91l.92,5.41a78.3,78.3,0,0,1,1.09,12.88c0,28-15.69,54.07-40.95,68h0C553,847.69,533.86,847.82,532.84,847.82ZM469,765.56c-.15,1.77-.23,3.54-.23,5.29a64.1,64.1,0,0,0,64.09,64c.16,0,16.73-.11,29.84-7.35h0c21.12-11.65,34.24-33.34,34.24-56.62,0-1.75-.07-3.52-.23-5.29Z"/><path class="cls-2" d="M707.66,765.56H358a63.24,63.24,0,0,1-39.4-112.63l11.24-9a103.15,103.15,0,0,0,38.66-80.72V503.73c0-91.14,74.26-165.28,165.54-165.28,5.08,0,10.3.24,15.5.73l7.33.68L555.29,347a130.35,130.35,0,0,0-3,27.91c0,71.56,58.31,129.78,130,129.78,3.41,0,6.88-.14,10.31-.41l7-.55v40.08l.42,29.77A104.37,104.37,0,0,0,737,643.87l.42.38,15.49,15.33a59.36,59.36,0,0,1,17.93,40v2.85A63.19,63.19,0,0,1,707.66,765.56ZM534,351.45c-84.11,0-152.54,68.31-152.54,152.28v59.43A116.15,116.15,0,0,1,338,654l-11.23,9A50.24,50.24,0,0,0,358,752.56H707.66a50.17,50.17,0,0,0,50.15-50.06v-2.39a46.45,46.45,0,0,0-14.09-31.25L728.4,653.72A117.44,117.44,0,0,1,687,574.53v-.48l-.43-30.1V517.66c-1.45.05-2.89.07-4.32.07-78.85,0-143-64.05-143-142.78a143.52,143.52,0,0,1,1.91-23.33Q537.59,351.46,534,351.45Z"/><path class="cls-2" d="M500.91,355l-2.45-2.47A48.33,48.33,0,1,1,575.1,295.1l2,3.51-2.27,3.32A128.46,128.46,0,0,0,555.29,347l-1.23,5.61-5.72-.53a153.9,153.9,0,0,0-44,2.23Zm32-71.74a35.74,35.74,0,0,0-7,.7,35.27,35.27,0,0,0-20.42,56.94A167,167,0,0,1,544,338.72a141.15,141.15,0,0,1,17.77-40.57,35.21,35.21,0,0,0-28.82-14.87Z"/></svg>