<svg id="Calque_1" data-name="Calque 1" xmlns="http://www.w3.org/2000/svg" viewBox="0 0 1080 1080"><defs><style>.cls-1{fill:#04bf8a;}.cls-2{fill:#fff;}</style></defs><path class="cls-1" d="M731.84,577.33V527.39c0-11-11.36-19.89-25.37-19.89h-420c-14,0-25.37,8.91-25.37,19.89v235c0,11,11.36,19.89,25.37,19.89h420c14,0,25.37-8.91,25.37-19.89V577.33Z"/><path class="cls-2" d="M785.24,751.74H748.13a6.5,6.5,0,1,1,0-13h37.11c11.19,0,20.63-6.76,20.63-14.77V472.7c0-8-9.44-14.77-20.63-14.77h-449c-11.18,0-20.63,6.76-20.63,14.77V724c0,8,9.45,14.77,20.63,14.77h37.11a6.5,6.5,0,0,1,0,13H336.22c-18.54,0-33.63-12.46-33.63-27.77V472.7c0-15.32,15.09-27.77,33.63-27.77h449c18.55,0,33.63,12.45,33.63,27.77V724C818.87,739.28,803.79,751.74,785.24,751.74Z"/><path class="cls-2" d="M560.55,426a77.28,77.28,0,0,1-77.15-69.62v-.12c-.05-.63-1.23-15.51,2.62-29.25,9.25-33,39.9-56.1,74.54-56.1a76.94,76.94,0,0,1,33.56,7.62l.27.14c1.89,1,18.66,10.25,25.84,20.29h0c12,16.81,17.87,33,17.87,49.5A77.62,77.62,0,0,1,560.55,426Zm-64.21-70.86a64.55,64.55,0,0,0,128.75-6.68c0-13.69-5.05-27.41-15.45-41.94h0c-4.56-6.37-16.79-13.88-21.31-16.34a63.9,63.9,0,0,0-27.78-6.27c-28.84,0-54.34,19.17-62,46.61C495.42,341.57,496.28,354.21,496.34,355.11Z"/><path class="cls-2" d="M721,847.36H400.46a33.67,33.67,0,0,1-33.63-33.63V656h387.8V813.73A33.67,33.67,0,0,1,721,847.36ZM379.83,669V813.73a20.65,20.65,0,0,0,20.63,20.63H721a20.65,20.65,0,0,0,20.63-20.63V669Z"/><path class="cls-2" d="M656,699.41H465.48a6.5,6.5,0,1,1,0-13H656a6.5,6.5,0,0,1,0,13Z"/><path class="cls-2" d="M516.73,748.45H465.48a6.5,6.5,0,0,1,0-13h51.25a6.5,6.5,0,0,1,0,13Z"/><path class="cls-2" d="M656,748.45H558.1a6.5,6.5,0,0,1,0-13H656a6.5,6.5,0,0,1,0,13Z"/><path class="cls-2" d="M656,797.49H465.48a6.5,6.5,0,0,1,0-13H656a6.5,6.5,0,0,1,0,13Z"/><path class="cls-2" d="M741.53,669H379.94a29,29,0,0,1,0-58.08H741.53a29,29,0,0,1,0,58.08ZM379.94,624a16,16,0,0,0,0,32.08H741.53a16,16,0,0,0,0-32.08Z"/><path class="cls-2" d="M351.43,511.17a17.78,17.78,0,1,1,17.78-17.77A17.79,17.79,0,0,1,351.43,511.17Zm0-22.55a4.78,4.78,0,1,0,4.78,4.78A4.78,4.78,0,0,0,351.43,488.62Z"/><path class="cls-2" d="M500.42,511.17h-110a17.78,17.78,0,0,1,0-35.55h110a17.78,17.78,0,0,1,0,35.55Zm-110-22.55a4.78,4.78,0,0,0,0,9.55h110a4.78,4.78,0,0,0,0-9.55Z"/><path class="cls-2" d="M754.63,457.93h-382V273.87a41.28,41.28,0,0,1,41.23-41.23H713.4a41.28,41.28,0,0,1,41.23,41.23Zm-369-13h356V273.87a28.26,28.26,0,0,0-28.23-28.23H413.84a28.26,28.26,0,0,0-28.23,28.23Z"/></svg>