<?xml version="1.0" encoding="UTF-8"?> <svg xmlns="http://www.w3.org/2000/svg" id="Calque_1" data-name="Calque 1" viewBox="0 0 1080 1080"><defs><style>.cls-1{fill:#bdd3f9;}.cls-2{fill:#1f274a;}</style></defs><circle class="cls-1" cx="450.54" cy="621.49" r="245.48"></circle><path class="cls-2" d="M801.58,655.89a6.42,6.42,0,0,0,3.26.88,6.5,6.5,0,0,0,5.63-3.24,275.82,275.82,0,0,0-42.53-332.28,5.79,5.79,0,0,0-1.42-1.43,273.87,273.87,0,0,0-192.69-80.37,6.85,6.85,0,0,0-1.45-.17,6.48,6.48,0,0,0-1.41.16,275.78,275.78,0,0,0-271.6,233.85,6.51,6.51,0,0,0,12.87,2,260.57,260.57,0,0,1,69.55-140.73l27.27,27.27a6.51,6.51,0,0,0,9.2-9.2L391,325.33c46.23-43.92,108.06-71.25,174.86-72.81v38.73a6.51,6.51,0,0,0,13,0V252.54a261.73,261.73,0,0,1,174.39,72.7l-27.35,27.35a6.51,6.51,0,1,0,9.2,9.2l27.34-27.33a261.78,261.78,0,0,1,72.1,174.33h-39a6.51,6.51,0,0,0,0,13h39A262.34,262.34,0,0,1,799.22,647,6.51,6.51,0,0,0,801.58,655.89Z"></path><path class="cls-2" d="M687.11,751.34a259.89,259.89,0,0,1-108.67,26.43V738.91a6.51,6.51,0,0,0-13,0v38.86a261.09,261.09,0,0,1-141.59-45.6,6.51,6.51,0,0,0-7.34,10.75A276,276,0,0,0,692.82,763a6.51,6.51,0,0,0-5.71-11.69Z"></path><path class="cls-2" d="M418.12,668.69a6.6,6.6,0,0,0-8.14-.57V637.6h9.91a31,31,0,0,0,26.85-46.5L375.35,467.44a31,31,0,0,0-53.7,0L250.26,591.1a31,31,0,0,0,26.85,46.5H287V752.94a38.35,38.35,0,0,0,38.31,38.3h46.34A38.35,38.35,0,0,0,410,752.94v-66.6l8.28-8.31A6.51,6.51,0,0,0,418.12,668.69Z"></path><path class="cls-2" d="M572.38,522h70.49a6.51,6.51,0,1,0,0-13h-64V358.55a6.51,6.51,0,1,0-13,0v156.6c0,.05,0,.1,0,.15s0,.1,0,.15A6.5,6.5,0,0,0,572.38,522Z"></path><path class="cls-2" d="M786.45,301.52A302.12,302.12,0,0,0,270.7,515.15a6.51,6.51,0,1,0,13,0c0-159.41,129.7-289.1,289.11-289.1s289.1,129.69,289.1,289.1a288.05,288.05,0,0,1-46.38,157.13,6.5,6.5,0,1,0,10.91,7.08,302.22,302.22,0,0,0-40-377.84Z"></path><path class="cls-2" d="M686.86,780.89a289.62,289.62,0,0,1-263.33-18.11,6.51,6.51,0,0,0-6.73,11.14A302.69,302.69,0,0,0,692,792.85a6.51,6.51,0,1,0-5.14-12Z"></path><path class="cls-2" d="M767.22,606a24.12,24.12,0,0,0-41.76,0l-51.31,88.88A24.11,24.11,0,0,0,695,731h5.3v81.07a29.39,29.39,0,0,0,29.36,29.36H763a29.4,29.4,0,0,0,29.36-29.36V731h5.29a24.11,24.11,0,0,0,20.88-36.16Z"></path></svg> 