<svg id="Calque_1" data-name="Calque 1" xmlns="http://www.w3.org/2000/svg" viewBox="0 0 1080 1080"><defs><style>.cls-1{fill:#04bf8a;}.cls-2{fill:#fff;}</style></defs><path class="cls-1" d="M303.48,301.49H423.85a33.66,33.66,0,0,1,33.66,33.66V508.56a33.66,33.66,0,0,1-33.66,33.66H250.44a33.66,33.66,0,0,1-33.66-33.66V335.15a33.66,33.66,0,0,1,33.66-33.66h53Z"/><rect class="cls-1" x="216.78" y="596.76" width="240.73" height="240.73" rx="33.33"/><path class="cls-1" d="M752.78,660.43v-30a33.66,33.66,0,0,0-33.66-33.66H545.7A33.66,33.66,0,0,0,512,630.42V803.83a33.66,33.66,0,0,0,33.66,33.66H719.12a33.66,33.66,0,0,0,33.66-33.66V660.43Z"/><rect class="cls-1" x="512.04" y="301.49" width="240.73" height="240.73" rx="33.33"/><path class="cls-2" d="M487,515.85H292a44.39,44.39,0,0,1-44.34-44.34V276.56A44.39,44.39,0,0,1,292,232.22H487a44.39,44.39,0,0,1,44.34,44.34v195A44.39,44.39,0,0,1,487,515.85ZM292,245.22a31.38,31.38,0,0,0-31.34,31.34v195A31.38,31.38,0,0,0,292,502.85H487a31.38,31.38,0,0,0,31.34-31.34V276.56A31.38,31.38,0,0,0,487,245.22Z"/><rect class="cls-2" x="351.64" y="336.19" width="75.68" height="75.68" rx="15.45"/><path class="cls-2" d="M411.87,750.31H367.09a22,22,0,0,1-21.95-21.95V683.57a22,22,0,0,1,21.95-22h44.78a22,22,0,0,1,21.95,22v44.79A22,22,0,0,1,411.87,750.31Zm-44.78-75.69a9,9,0,0,0-8.95,9v44.79a9,9,0,0,0,8.95,8.95h44.78a9,9,0,0,0,8.95-8.95V683.57a9,9,0,0,0-8.95-9Z"/><rect class="cls-2" x="683.57" y="336.19" width="75.68" height="75.68" rx="15.45"/><path class="cls-2" d="M791.27,471.29H651.55a27.42,27.42,0,0,1-27.39-27.39V304.17a27.42,27.42,0,0,1,27.39-27.39H791.27a27.42,27.42,0,0,1,27.39,27.39V443.9A27.42,27.42,0,0,1,791.27,471.29ZM651.55,289.78a14.41,14.41,0,0,0-14.39,14.39V443.9a14.41,14.41,0,0,0,14.39,14.39H791.27a14.41,14.41,0,0,0,14.39-14.39V304.17a14.41,14.41,0,0,0-14.39-14.39Z"/><path class="cls-2" d="M491.46,847.78h-204A39.87,39.87,0,0,1,247.67,808V604a39.87,39.87,0,0,1,39.83-39.83h204A39.88,39.88,0,0,1,531.29,604V808A39.88,39.88,0,0,1,491.46,847.78Zm-204-270.63A26.86,26.86,0,0,0,260.67,604V808a26.86,26.86,0,0,0,26.83,26.83h204A26.86,26.86,0,0,0,518.29,808V604a26.86,26.86,0,0,0-26.83-26.83Z"/><path class="cls-2" d="M818.88,847.78H623.94a44.39,44.39,0,0,1-44.34-44.34v-195a44.39,44.39,0,0,1,44.34-44.34H818.88a44.39,44.39,0,0,1,44.34,44.34v195A44.39,44.39,0,0,1,818.88,847.78ZM623.94,577.15a31.37,31.37,0,0,0-31.34,31.34v195a31.37,31.37,0,0,0,31.34,31.34H818.88a31.38,31.38,0,0,0,31.34-31.34v-195a31.38,31.38,0,0,0-31.34-31.34Z"/><path class="cls-2" d="M823.39,515.85h-204A39.87,39.87,0,0,1,579.6,476v-204a39.87,39.87,0,0,1,39.83-39.83h204a39.88,39.88,0,0,1,39.83,39.83V476A39.88,39.88,0,0,1,823.39,515.85Zm-204-270.63a26.86,26.86,0,0,0-26.83,26.83V476a26.86,26.86,0,0,0,26.83,26.83h204A26.86,26.86,0,0,0,850.22,476v-204a26.86,26.86,0,0,0-26.83-26.83Z"/><path class="cls-2" d="M856.72,546.5H254.17a6.5,6.5,0,1,1,0-13H856.72a6.5,6.5,0,0,1,0,13Z"/><path class="cls-2" d="M555.44,847.78a6.5,6.5,0,0,1-6.5-6.5V238.72a6.5,6.5,0,0,1,13,0V841.28A6.5,6.5,0,0,1,555.44,847.78Z"/></svg>