<?xml version="1.0" encoding="utf-8"?>
<!-- Generator: Adobe Illustrator 25.0.1, SVG Export Plug-In . SVG Version: 6.00 Build 0)  -->
<svg version="1.1" id="Calque_1" xmlns="http://www.w3.org/2000/svg" xmlns:xlink="http://www.w3.org/1999/xlink" x="0px" y="0px"
	 viewBox="0 0 1080 1080" style="enable-background:new 0 0 1080 1080;" xml:space="preserve">
<style type="text/css">
	.st0{fill:#BDD3F9;}
	.st1{fill:#1F274A;}
</style>
<path class="st0" d="M344.9,338.8h97c15,0,27.1,12.1,27.1,27.1l0,0l0,0v139.8c0,15-12.1,27.1-27.1,27.1H302.1
	c-15,0-27.1-12.1-27.1-27.1l0,0l0,0V365.9c0-15,12.1-27.1,27.1-27.1l0,0H344.9L344.9,338.8z"/>
<path class="st0" d="M301.9,576.8h140.3c14.8,0,26.9,12,26.9,26.9V744c0,14.8-12,26.9-26.9,26.9H301.9c-14.8,0-26.9-12-26.9-26.9
	V603.7C275,588.9,287,576.8,301.9,576.8z"/>
<path class="st0" d="M707.1,628.2V604c0-15-12.1-27.1-27.1-27.1H540.2c-15,0-27.2,12.1-27.2,27.1v0v139.8c0,15,12.1,27.1,27.1,27.1
	H680c15,0,27.1-12.1,27.1-27.1L707.1,628.2L707.1,628.2z"/>
<path class="st0" d="M539.9,338.8h140.3c14.8,0,26.9,12,26.9,26.9V506c0,14.8-12,26.9-26.9,26.9H539.9c-14.8,0-26.9-12-26.9-26.9
	V365.6C513,350.8,525.1,338.8,539.9,338.8z"/>
<path class="st1" d="M492.9,511.6H335.6c-19.7,0-35.7-16-35.7-35.7V318.7c0-19.7,16-35.7,35.7-35.7h157.2c19.7,0,35.7,16,35.7,35.7
	v157.2C528.6,495.6,512.6,511.6,492.9,511.6z M335.6,293.4c-13.9,0-25.2,11.3-25.3,25.3v157.2c0,13.9,11.3,25.2,25.3,25.2h157.2
	c13.9,0,25.2-11.3,25.3-25.3V318.7c0-13.9-11.3-25.2-25.3-25.3H335.6z"/>
<path class="st1" d="M396.2,366.8h36.1c6.9,0,12.5,5.6,12.5,12.5v36.1c0,6.9-5.6,12.5-12.5,12.5h-36.1c-6.9,0-12.5-5.6-12.5-12.5
	v-36.1C383.7,372.3,389.3,366.8,396.2,366.8z"/>
<path class="st1" d="M432.3,700.6h-36.1c-9.8,0-17.7-7.9-17.7-17.7v-36.1c0-9.8,7.9-17.7,17.7-17.7h36.1c9.8,0,17.7,8,17.7,17.7
	v36.1C450,692.7,442,700.6,432.3,700.6z M396.2,639.6c-4,0-7.2,3.3-7.2,7.3V683c0,4,3.2,7.2,7.2,7.3h36.1c4,0,7.2-3.3,7.2-7.3v-36.2
	c0-4-3.2-7.2-7.2-7.3L396.2,639.6z"/>
<path class="st1" d="M663.8,366.8h36.1c6.9,0,12.5,5.6,12.5,12.5v36.1c0,6.9-5.6,12.5-12.5,12.5h-36.1c-6.9,0-12.5-5.6-12.5-12.5
	v-36.1C651.3,372.3,656.9,366.8,663.8,366.8z"/>
<path class="st1" d="M738.2,475.7H625.5c-12.2,0-22.1-9.9-22.1-22.1V340.9c0-12.2,9.9-22.1,22.1-22.1h112.6
	c12.2,0,22.1,9.9,22.1,22.1v112.7C760.2,465.8,750.4,475.7,738.2,475.7z M625.5,329.3c-6.4,0-11.6,5.2-11.6,11.6v112.7
	c0,6.4,5.2,11.6,11.6,11.6h112.6c6.4,0,11.6-5.2,11.6-11.6V340.9c0-6.4-5.2-11.6-11.6-11.6H625.5z"/>
<path class="st1" d="M496.5,779.2H332c-17.7,0-32-14.4-32.1-32.1V582.7c0-17.7,14.4-32.1,32.1-32.1h164.5
	c17.7,0,32.1,14.4,32.1,32.1v164.5C528.5,764.8,514.2,779.2,496.5,779.2z M332,561c-11.9,0-21.6,9.7-21.6,21.6v164.5
	c0,11.9,9.7,21.6,21.6,21.6h164.5c11.9,0,21.6-9.7,21.6-21.6V582.7c0-11.9-9.7-21.6-21.6-21.6L332,561z"/>
<path class="st1" d="M760.4,779.2H603.3c-19.7,0-35.7-16-35.7-35.7V586.2c0-19.7,16-35.7,35.7-35.7h157.2c19.7,0,35.7,16,35.7,35.7
	v157.2C796.2,763.2,780.2,779.2,760.4,779.2z M603.3,561c-13.9,0-25.2,11.3-25.3,25.3v157.2c0,13.9,11.3,25.2,25.3,25.3h157.2
	c13.9,0,25.2-11.3,25.3-25.3V586.3c0-13.9-11.3-25.2-25.3-25.3H603.3z"/>
<path class="st1" d="M764.1,511.6H599.6c-17.7,0-32.1-14.4-32.1-32.1V315c0-17.7,14.4-32.1,32.1-32.1h164.5
	c17.7,0,32.1,14.4,32.1,32.1v164.5C796.2,497.2,781.8,511.6,764.1,511.6z M599.6,293.4c-11.9,0-21.6,9.7-21.6,21.6v164.4
	c0,11.9,9.7,21.6,21.6,21.6h164.5c11.9,0,21.6-9.7,21.6-21.6V315c0-11.9-9.7-21.6-21.6-21.6L599.6,293.4z"/>
<path class="st1" d="M790.9,536.3H305.1c-2.9,0-5.2-2.3-5.2-5.2c0-2.9,2.3-5.2,5.2-5.2h485.8c2.9,0,5.2,2.3,5.2,5.2
	C796.2,534,793.8,536.3,790.9,536.3z"/>
<path class="st1" d="M548,779.2c-2.9,0-5.2-2.3-5.2-5.2V288.2c0-2.9,2.3-5.2,5.2-5.2c2.9,0,5.2,2.3,5.2,5.2V774
	C553.3,776.9,550.9,779.2,548,779.2z"/>
</svg>
