<svg id="Calque_1" data-name="Calque 1" xmlns="http://www.w3.org/2000/svg" viewBox="0 0 1080 1080"><defs><style>.cls-1{fill:#bdd3f9;}.cls-2{fill:#1f274a;}</style></defs><rect class="cls-1" x="261.57" y="276.91" width="416" height="540.52" rx="30.32"/><path class="cls-2" d="M724,848.29H339.59a39.08,39.08,0,0,1-39-39V270.75a39.08,39.08,0,0,1,39-39H724a39.08,39.08,0,0,1,39,39V511.31a6.5,6.5,0,0,1-13,0V270.75a26.08,26.08,0,0,0-26-26H339.59a26.08,26.08,0,0,0-26,26v538.5a26.08,26.08,0,0,0,26,26H724a26.08,26.08,0,0,0,26-26V661.53a6.5,6.5,0,0,1,13,0V809.25A39.07,39.07,0,0,1,724,848.29Z"/><path class="cls-2" d="M531.79,827.93a24.5,24.5,0,1,1,24.5-24.5h0A24.54,24.54,0,0,1,531.79,827.93Zm0-36a11.5,11.5,0,1,0,11.5,11.5A11.5,11.5,0,0,0,531.79,791.93Z"/><path class="cls-2" d="M595.25,622.87a15.23,15.23,0,0,1-9.89-3.47c-11.2-9.25-9.78-33.33-6.55-71.86,2.77-32.95,6.22-74-7.12-84.13-4-3-23.67-8.54-109.58,48.25-47.46,31.38-91.52,66.31-92,66.66A6.49,6.49,0,0,1,362,568.15c.44-.36,44.88-35.6,92.81-67.29,89.94-59.47,114.23-55.76,124.69-47.79,19,14.48,15.55,55.7,12.2,95.56-1.28,15.25-2.49,29.66-2.27,41.13.29,14.86,3,18.67,4.14,19.62.27.22,1.09.91,3.86.13,16.24-4.55,34.61-21.87,52.37-38.62,24.17-22.79,47-44.31,69.89-41.55,7.71.92,17.48,5.18,20.28,20.18,1.66,8.89.57,19.32-.48,29.4-.78,7.4-2.22,21.19.33,23.28.28.24,1.84.6,5.55-.53,27.24-8.29,52.87-59.19,60.45-78.11A6.54,6.54,0,0,1,818,528.39c-1.2,3-30,73.92-68.73,85.72-7.44,2.26-13.36,1.63-17.61-1.88-7.93-6.54-6.57-19.57-5-34.66,2.45-23.43,1.81-34.09-8.43-35.33-16.85-2-38.48,18.38-59.41,38.11C639.89,598.18,620.33,616.62,601,622A21.53,21.53,0,0,1,595.25,622.87Z"/></svg>