<svg id="Calque_1" data-name="Calque 1" xmlns="http://www.w3.org/2000/svg" viewBox="0 0 1080 1080"><defs><style>.cls-1{fill:#bdd3f9;}.cls-2{fill:#1f274a;}</style></defs><rect class="cls-1" x="270.82" y="270.19" width="282.85" height="539.63" rx="29.91"/><path class="cls-2" d="M607.52,848.29H337c-16.49,0-29.4-17.15-29.4-39V270.75c0-21.89,12.91-39,29.4-39H607.52c16.49,0,29.4,17.15,29.4,39V333a6.5,6.5,0,0,1-13,0V270.8c0-14.11-7.51-26-16.4-26H337c-8.89,0-16.4,11.93-16.4,26V809.3c0,14.11,7.51,26,16.4,26H607.52c8.89,0,16.4-11.93,16.4-26V543.05a6.5,6.5,0,0,1,13,0v266.2C636.92,831.14,624,848.29,607.52,848.29Z"/><path class="cls-2" d="M601.51,759H343c-5.73,0-10.22-5.06-10.22-11.53v-451c0-6.46,4.49-11.53,10.22-11.53H601.51c5.73,0,10.22,5.07,10.22,11.53V333a6.5,6.5,0,0,1-13,0V298h-253V746h253V546.31a6.5,6.5,0,0,1,13,0V747.46C611.73,753.93,607.24,759,601.51,759Z"/><path class="cls-2" d="M509.65,271.86H463.43a6.5,6.5,0,1,1,0-13h46.22a6.5,6.5,0,0,1,0,13Z"/><circle class="cls-2" cx="441.35" cy="265.36" r="6.52"/><path class="cls-2" d="M472.24,820.6a23.47,23.47,0,1,1,23.46-23.48v0A23.48,23.48,0,0,1,472.24,820.6Zm0-33.93a10.47,10.47,0,1,0,10.46,10.48h0A10.48,10.48,0,0,0,472.24,786.67Z"/><path class="cls-2" d="M476.39,610.76l37.48-62.22a59.13,59.13,0,0,1-48.13-58v-105a59.11,59.11,0,0,1,59-59H750.16a59.1,59.1,0,0,1,59,59v105a59.1,59.1,0,0,1-59,59H614Zm48.38-271.31a46.07,46.07,0,0,0-46,46v105a46.07,46.07,0,0,0,46,46h11.5L508.83,582.1l102.35-45.55h139a46.07,46.07,0,0,0,46-46v-105a46.07,46.07,0,0,0-46-46Z"/><path class="cls-2" d="M660.66,382.54H519.77a6.5,6.5,0,0,1,0-13H660.66a6.5,6.5,0,0,1,0,13Z"/><path class="cls-2" d="M759.11,417.5H519.77a6.5,6.5,0,0,1,0-13H759.11a6.5,6.5,0,1,1,0,13Z"/><path class="cls-2" d="M759.11,452.45H519.77a6.5,6.5,0,0,1,0-13H759.11a6.5,6.5,0,0,1,0,13Z"/><path class="cls-2" d="M759.11,487.41H519.77a6.5,6.5,0,0,1,0-13H759.11a6.5,6.5,0,0,1,0,13Z"/></svg>