<?xml version="1.0" encoding="UTF-8"?>
<svg data-name="Capa 1" viewBox="0 0 512 422.78" xmlns="http://www.w3.org/2000/svg">
<defs>
<style>.cls-110{fill:#04bf8a;}.cls-120{fill:#fff;}</style>
</defs>
<path class="cls-110" transform="translate(0 -44.33)" d="m387.36 315h57.32v142.11h-57.32z"/>
<path class="cls-110" transform="translate(0 -44.33)" d="M124.64,457.11H67.32V315h57.32Z"/>
<path class="cls-110" transform="translate(0 -44.33)" d="M168.71,190.85H343.28v41.3H168.71Z"/>
<path class="cls-110" transform="translate(0 -44.33)" d="M168.71,277.1H343.28v44.5H168.71Z"/>
<path class="cls-120" transform="translate(0 -44.33)" d="M502,196.83H397.36V54.89a10,10,0,0,0-4-8c-2.49-1.89-5.73-2.51-5.44-2.59L125.25,118c-7.62,2.14-10.61,6.07-10.61,10.56v68.28H10a10,10,0,0,0-10,10V457.11a10,10,0,0,0,10,10H502a10,10,0,0,0,10-10V206.83A10,10,0,0,0,502,196.83Zm-482,20h94.64V305H48.87a10,10,0,0,0,0,20h65.77V447.11H20Zm114.64-80.7,242.72-68v379H335.05V372h2.27a10,10,0,0,0,0-20H174.67a10,10,0,1,0,0,20H177v75.09H134.64ZM266,447.11V408.57a10,10,0,1,0-20,0v38.54H197V372h118.1v75.09Zm226,0H397.36V325h65.77a10,10,0,0,0,0-20H397.36V216.83H492Z"/>
<path class="cls-120" transform="translate(0 -44.33)" d="m323.85 160.1a29.44 29.44 0 1 0-29.44-29.44 29.48 29.48 0 0 0 29.44 29.44zm0-38.88a9.44 9.44 0 1 1-9.44 9.44 9.45 9.45 0 0 1 9.44-9.44z"/>
</svg>
