<svg id="Calque_1" data-name="Calque 1" xmlns="http://www.w3.org/2000/svg" viewBox="0 0 1080 1080"><defs><style>.cls-1{fill:#bdd3f9;}.cls-2{fill:#1f274a;}</style></defs><path class="cls-1" d="M291.21,527.32,330.77,696.1h88.05l27.46,191.46H551.77L579.22,696.1h88.06l39.55-168.78Z"/><path class="cls-2" d="M556.18,332a71.32,71.32,0,1,1,71.31-71.33h0A71.39,71.39,0,0,1,556.18,332Zm0-129.64a58.32,58.32,0,1,0,58.31,58.33h0a58.38,58.38,0,0,0-58.31-58.31Z"/><path class="cls-2" d="M490.9,491.69a6.5,6.5,0,0,1-6.5-6.5V403.55a6.5,6.5,0,0,1,13,0v81.64A6.5,6.5,0,0,1,490.9,491.69Z"/><path class="cls-2" d="M621,491.69a6.5,6.5,0,0,1-6.5-6.5V403.55a6.5,6.5,0,1,1,13,0v81.64A6.5,6.5,0,0,1,621,491.69Z"/><path class="cls-2" d="M618.77,890.63H493.58L449,579.74H663.35Zm-113.92-13H607.5l40.85-284.89H464Z"/><path class="cls-2" d="M743,683.88H635.28l13.07-91.14H464l13.07,91.14H369.33L323.56,488.61H788.79Zm-92.74-13H732.7l39.67-169.27H340l39.67,169.27h82.44L449,579.74H663.35Z"/><path class="cls-2" d="M685.4,501.61H427V415.13c0-34.4,32.79-62.39,73.1-62.39H612.3c40.31,0,73.1,28,73.1,62.39Zm-245.4-13H672.4V415.13c0-27.23-27-49.39-60.1-49.39H500.05c-33.14,0-60.1,22.16-60.1,49.39Z"/><path class="cls-2" d="M348,501.61a6.49,6.49,0,0,1-6.44-5.7c-.35-2.83-8.13-69.71,27.29-105.13a6.5,6.5,0,1,1,9.2,9.19h0c-30.91,30.91-23.67,93.72-23.59,94.35a6.5,6.5,0,0,1-5.66,7.24A7.16,7.16,0,0,1,348,501.61Z"/><circle class="cls-2" cx="378.07" cy="391.3" r="22.73"/></svg>