<svg id="Calque_1" data-name="Calque 1" xmlns="http://www.w3.org/2000/svg" viewBox="0 0 1080 1080"><defs><style>.cls-1{fill:#04bf8a;}.cls-2{fill:#fff;}</style></defs><path class="cls-1" d="M742.83,401.17a236.71,236.71,0,0,1-65.49,17.95,112.92,112.92,0,0,0,50-62.82,227.17,227.17,0,0,1-72.07,27.52,113.64,113.64,0,0,0-196.59,77.71,117.13,117.13,0,0,0,2.63,25.92c-94.49-4.61-178.09-49.89-234.26-118.88A113.67,113.67,0,0,0,262,520.47a112.27,112.27,0,0,1-51.35-14v1.25a114.17,114.17,0,0,0,91.05,111.67,113.36,113.36,0,0,1-29.79,3.74,100.12,100.12,0,0,1-21.52-1.94c14.73,45,56.51,78.1,106.2,79.18a228.43,228.43,0,0,1-140.92,48.47,213.52,213.52,0,0,1-27.2-1.56,319.94,319.94,0,0,0,174.35,51c209.14,0,323.48-173.24,323.48-323.41,0-5-.17-9.87-.41-14.69A226.77,226.77,0,0,0,742.83,401.17Z"/><path class="cls-2" d="M436.93,805.33A375.26,375.26,0,0,1,233,745.68l-24.11-15.55,28.46,3.64a235.33,235.33,0,0,0,30.43,1.74,257.76,257.76,0,0,0,144.12-44.25,138.52,138.52,0,0,1-110.39-93.93L298,586.51,309.12,589c6.4,1.42,13.82,2.08,23.32,2.08,1.89,0,3.76,0,5.6-.11a138.09,138.09,0,0,1-82.5-126V452.47l9.63,5.3a124.48,124.48,0,0,0,34.19,12.76,137.2,137.2,0,0,1-24.08-168.8l4.72-8.17,6,7.31a369.18,369.18,0,0,0,51.12,51.5c1.65,1.28,28,21.57,39.43,28.4h0c53,31.61,108.7,49.71,165.71,53.84a150.38,150.38,0,0,1-1.6-22.79c0-75.63,61.47-137.15,137-137.15a137.93,137.93,0,0,1,97.6,40.74,253.91,253.91,0,0,0,77.31-30.11l14.7-8.77-5.18,16.32a135.58,135.58,0,0,1-37.8,59,261.24,261.24,0,0,0,46.8-15.4l20.47-9-12.47,18.55a268.14,268.14,0,0,1-64.2,67.41c.22,5,.32,9.46.32,13.67A370.65,370.65,0,0,1,806.52,506l-.09.35L794.89,548c-32.21,95.45-91,169-165.52,207.14-51.59,26.39-86.82,36.45-88.3,36.87A401.22,401.22,0,0,1,436.93,805.33ZM263.22,748.48a363.12,363.12,0,0,0,173.71,43.85,387.81,387.81,0,0,0,100.69-12.89c.28-.08,35.5-10.15,85.83-35.9C694.9,707,751.38,636.12,782.51,544l11.35-40.9a358,358,0,0,0,8.34-75.94c0-4.94-.15-10.2-.47-16.56l-.18-3.56,2.91-2.07a249.8,249.8,0,0,0,50.85-48.38,282.84,282.84,0,0,1-56.06,12.94l-30.87,3.93,26.71-15.95a123.89,123.89,0,0,0,48.07-52.22,269.76,269.76,0,0,1-68.83,23.59l-3.54.71L768.32,327a124.83,124.83,0,0,0-90.67-39.28c-68.39,0-124,55.69-124,124.15a127.05,127.05,0,0,0,2.86,28.34l1.9,8.35-8.55-.41c-62-3-122.58-21.93-180-56.17-12.43-7.41-39.66-28.45-40.81-29.34l-.16-.13a382.48,382.48,0,0,1-46.76-45.9,124.07,124.07,0,0,0,42.55,157.59l18.43,12.32-22.17-.42a133.12,133.12,0,0,1-52-11.91C273,529.08,313.4,575.71,368,586.87l26.68,5.46-26.27,7.18a136.41,136.41,0,0,1-36,4.53c-5.44,0-10.31-.2-14.75-.63,19.14,45.07,63,75.33,112.22,76.39l18.21.4-14.35,11.22a270.49,270.49,0,0,1-166,57.09Q265.47,748.51,263.22,748.48Z"/></svg>