<svg id="Calque_1" data-name="Calque 1" xmlns="http://www.w3.org/2000/svg" viewBox="0 0 1080 1080"><defs><style>.cls-1{fill:#bdd3f9;}.cls-2{fill:#1f274a;}</style></defs><rect class="cls-1" x="191.92" y="320.3" width="573.78" height="383.29" rx="20.06"/><path class="cls-2" d="M810.15,426.85H605.38a21.47,21.47,0,0,1-21.44-21.45V343.78a21.47,21.47,0,0,1,21.44-21.45H810.15a21.47,21.47,0,0,1,21.45,21.45V405.4A21.47,21.47,0,0,1,810.15,426.85ZM605.38,335.33a8.46,8.46,0,0,0-8.44,8.45V405.4a8.46,8.46,0,0,0,8.44,8.45H810.15a8.47,8.47,0,0,0,8.45-8.45V343.78a8.47,8.47,0,0,0-8.45-8.45Z"/><path class="cls-2" d="M707.77,520.66H590.44a6.5,6.5,0,1,1,0-13H707.77a6.5,6.5,0,1,1,0,13Z"/><path class="cls-2" d="M825.1,520.66H747.94a6.5,6.5,0,0,1,0-13H825.1a6.5,6.5,0,1,1,0,13Z"/><path class="cls-2" d="M769.77,567.56H692.61a6.5,6.5,0,0,1,0-13h77.16a6.5,6.5,0,0,1,0,13Z"/><path class="cls-2" d="M825.1,473.75H590.44a6.5,6.5,0,0,1,0-13H825.1a6.5,6.5,0,0,1,0,13Z"/><path class="cls-2" d="M861.53,662.39H270.08a26.59,26.59,0,0,1-26.55-26.56V254.06a26.58,26.58,0,0,1,26.55-26.56H861.53a26.58,26.58,0,0,1,26.55,26.56V635.83A26.59,26.59,0,0,1,861.53,662.39ZM270.08,240.5a13.58,13.58,0,0,0-13.55,13.56V635.83a13.58,13.58,0,0,0,13.55,13.56H861.53a13.58,13.58,0,0,0,13.55-13.56V254.06a13.58,13.58,0,0,0-13.55-13.56Z"/><path class="cls-2" d="M565.81,852.5a6.5,6.5,0,0,1-6.5-6.5V655.89a6.5,6.5,0,1,1,13,0V846A6.5,6.5,0,0,1,565.81,852.5Z"/><path class="cls-2" d="M741.14,852.5H390.47a6.5,6.5,0,0,1,0-13H741.14a6.5,6.5,0,0,1,0,13Z"/><path class="cls-2" d="M435.29,469.06l19.48-43.78a3.49,3.49,0,0,0-1.76-4.61,3.53,3.53,0,0,0-2.85,0l-43.79,19.47-56,24.9a3.48,3.48,0,0,0-.17,6.3l20.6,10.56a3.5,3.5,0,0,1,1.51,4.71,3.4,3.4,0,0,1-.63.87L353,506.16a3.49,3.49,0,0,0,0,4.92l0,0,11.34,11.34a3.5,3.5,0,0,0,4.94,0L388,503.76a3.5,3.5,0,0,1,4.95,0,3.35,3.35,0,0,1,.63.86l10.57,20.6a3.48,3.48,0,0,0,4.7,1.5,3.42,3.42,0,0,0,1.59-1.68Z"/></svg>