<?xml version="1.0" encoding="UTF-8"?> <svg xmlns="http://www.w3.org/2000/svg" id="Calque_1" data-name="Calque 1" viewBox="0 0 1080 1080"><defs><style>.cls-1{fill:#bdd3f9;}.cls-2,.cls-3{fill:none;stroke:#1f274a;stroke-miterlimit:10;stroke-width:13px;}.cls-2{stroke-linecap:round;}</style></defs><path class="cls-1" d="M771.27,534H458V374.85a32.67,32.67,0,0,0-32.57-32.58H159.83a32.67,32.67,0,0,0-32.57,32.58V784.06a32.67,32.67,0,0,0,32.57,32.58H239.5v9.92a54.79,54.79,0,0,0,54.63,54.63H771.27a54.79,54.79,0,0,0,54.63-54.63V588.61A54.79,54.79,0,0,0,771.27,534Z"></path><line class="cls-2" x1="234.57" y1="297.73" x2="459.52" y2="297.73"></line><line class="cls-2" x1="234.57" y1="342.27" x2="355.65" y2="342.27"></line><line class="cls-2" x1="290.4" y1="403.98" x2="411.47" y2="403.98"></line><line class="cls-2" x1="411.37" y1="342.27" x2="459.52" y2="342.27"></line><line class="cls-2" x1="202.1" y1="554.66" x2="290.99" y2="554.66"></line><line class="cls-2" x1="202.1" y1="658.83" x2="236.44" y2="658.83"></line><line class="cls-2" x1="236.44" y1="606.74" x2="290.99" y2="606.74"></line><path class="cls-3" d="M736.87,642.2h87.21c70,0,127.42-56.67,128.63-126.41a64,64,0,0,0-64-62.89H761.44"></path><line class="cls-3" x1="568.25" y1="642.2" x2="675.46" y2="642.2"></line><path class="cls-3" d="M482.27,452.9H355a64,64,0,0,0-64,62.89c1.22,69.74,58.63,126.41,128.64,126.41h87.2"></path><rect class="cls-3" x="506.83" y="612.98" width="61.41" height="61.41" rx="12"></rect><rect class="cls-3" x="675.46" y="612.98" width="61.41" height="61.41" rx="12"></rect><path class="cls-3" d="M888.71,452.9H761.44v-38a59.63,59.63,0,0,0-59.56-59.56H541.82a59.63,59.63,0,0,0-59.55,59.56v38H355a64,64,0,0,0-64,64V780.71a64,64,0,0,0,64,64H888.71a64,64,0,0,0,64-64h0V516.93A64,64,0,0,0,888.71,452.9Zm-367.91-38a21,21,0,0,1,21-21H701.88a21,21,0,0,1,21,21v38H520.8Z"></path><path class="cls-3" d="M537.54,355.52V275.3a38.74,38.74,0,0,0-38.74-38.74H203.07a38.74,38.74,0,0,0-38.74,38.74V733.14a38.75,38.75,0,0,0,38.74,38.74H291"></path></svg> 